<?xml version="1.0" encoding="utf-8" ?>
<svg baseProfile="full" height="100%" version="1.1" viewBox="0,0,1000,240" width="100%" xmlns="http://www.w3.org/2000/svg" xmlns:ev="http://www.w3.org/2001/xml-events" xmlns:xlink="http://www.w3.org/1999/xlink"><defs /><rect fill="white" height="240" width="1000" x="0" y="0" /><path d="M0,0 M432.2429504394531,45.0 L432.2379455566406,45.29987335205078 L432.15460205078125,45.975318908691406 L431.9435119628906,47.1297607421875 L431.5733642578125,48.76457595825195 L431.07281494140625,50.8577995300293 L430.504638671875,53.33092498779297 L429.9483642578125,56.05060958862305 L429.4989929199219,58.85208511352539 L429.27392578125,61.547054290771484 L429.37359619140625,63.96787643432617 L429.8758239746094,65.99982452392578 L430.8107604980469,67.57001495361328 L432.147216796875,68.6251220703125 L433.83331298828125,69.18202209472656 L435.7799072265625,69.28564453125 L437.8988342285156,69.00167846679688 L440.034423828125,68.43647003173828 L442.0085754394531,67.71116638183594 L443.4729919433594,67.06024169921875 L444.31732177734375,66.6295394897461 M443.89227294921875,58.643096923828125 L443.990478515625,58.85041427612305 L444.12066650390625,59.348419189453125 L444.2301940917969,60.22394943237305 L444.25970458984375,61.46989440917969 L444.21710205078125,63.01634979248047 L444.1416015625,64.73860931396484 L444.08587646484375,66.47730255126953 L444.1011047363281,68.0118637084961 L444.20220947265625,69.13459014892578 L444.3763122558594,69.72036743164062 L444.55340576171875,69.8781509399414 L444.68157958984375,69.805908203125 M445.5035705566406,51.11359786987305 L445.4615478515625,50.95146560668945 L445.4433898925781,50.808780670166016 L445.45062255859375,50.72510528564453 L445.48468017578125,50.73999786376953 M448.7812194824219,61.442813873291016 L448.7406921386719,62.10190200805664 L448.666748046875,63.197242736816406 L448.56201171875,64.61564636230469 L448.45281982421875,66.09268951416016 L448.37786865234375,67.5265884399414 L448.34698486328125,68.79356384277344 L448.36602783203125,69.83072662353516 L448.4286193847656,70.529052734375 L448.5179443359375,70.79593658447266 L448.63446044921875,70.5768051147461 L448.8012390136719,69.8532485961914 L449.0346374511719,68.65717315673828 L449.364501953125,67.11693572998047 L449.818603515625,65.37684631347656 L450.424560546875,63.58458709716797 L451.208251953125,61.87872314453125 L452.1600341796875,60.37556076049805 L453.2349548339844,59.185577392578125 L454.3628234863281,58.417293548583984 L455.4613037109375,58.13502502441406 L456.46881103515625,58.35814666748047 L457.34698486328125,59.064971923828125 L458.0528564453125,60.204994201660156 L458.55767822265625,61.708030700683594 L458.8375549316406,63.46658706665039 L458.8993835449219,65.3386001586914 L458.79693603515625,67.15862274169922 L458.63140869140625,68.7245101928711 L458.50921630859375,69.86994171142578 L458.5104675292969,70.52281188964844 L458.5940856933594,70.77145385742188 L458.6964111328125,70.78462982177734 M461.5376281738281,67.14244842529297 L461.9189453125,66.96029663085938 L462.6046447753906,66.5484848022461 L463.5626220703125,65.8495864868164 L464.649658203125,64.89604949951172 L465.7607116699219,63.73719787597656 L466.77838134765625,62.45061492919922 L467.6054992675781,61.12717819213867 L468.16094970703125,59.86666488647461 L468.39312744140625,58.77315139770508 L468.29083251953125,57.97309875488281 L467.86944580078125,57.55922317504883 L467.1792297363281,57.61312484741211 L466.30584716796875,58.189456939697266 L465.3658142089844,59.2741584777832 L464.4861755371094,60.78622817993164 L463.7942199707031,62.576690673828125 L463.407958984375,64.46155548095703 L463.4196472167969,66.28392028808594 L463.8466491699219,67.92366790771484 L464.7274475097656,69.27986907958984 L466.003173828125,70.28795623779297 L467.5345458984375,70.91134643554688 L468.87933349609375,71.20428466796875 L469.77777099609375,71.28367614746094 M481.8349914550781,67.81190490722656 L482.13525390625,67.20094299316406 L482.6992492675781,66.07892608642578 L483.5223388671875,64.48361206054688 L484.5083312988281,62.615116119384766 L485.5976867675781,60.59260559082031 L486.7242126464844,58.533416748046875 L487.83172607421875,56.54071044921875 L488.8605651855469,54.73834991455078 L489.74395751953125,53.25247573852539 L490.4322814941406,52.174903869628906 L490.908935546875,51.58418655395508 L491.1715087890625,51.540489196777344 L491.2218933105469,52.10252380371094 L491.0750732421875,53.315704345703125 L490.7298889160156,55.15414047241211 L490.22802734375,57.49853515625 L489.64483642578125,60.15752410888672 L489.066650390625,62.90959167480469 L488.5631103515625,65.54835510253906 L488.2083740234375,67.90078735351562 L488.0241394042969,69.80656433105469 L488.01654052734375,71.16644287109375 L488.1043701171875,71.95384216308594 L488.2093811035156,72.28639221191406 M502.96966552734375,63.07622146606445 L502.87139892578125,63.61223220825195 L502.7002258300781,64.56534576416016 L502.470458984375,65.86526489257812 L502.2330627441406,67.2823715209961 L502.0245361328125,68.66259002685547 L501.8649597167969,69.86920166015625 L501.77728271484375,70.84198760986328 L501.772216796875,71.46194458007812 L501.849853515625,71.6672134399414 L502.00762939453125,71.46052551269531 L502.1775817871094,71.07257080078125 L502.3043212890625,70.71000671386719 M503.40484619140625,53.583160400390625 L503.34375,53.52171325683594 L503.2693786621094,53.49551010131836 L503.1927795410156,53.57006072998047 L503.1670837402344,53.80364227294922 L503.2149353027344,54.162139892578125 L503.3626403808594,54.571128845214844 L503.5408020019531,54.903114318847656 L503.6956481933594,55.10418701171875 M507.30816650390625,62.780914306640625 L507.2815246582031,63.19529724121094 L507.19024658203125,63.95979690551758 L507.003173828125,65.0550308227539 L506.72723388671875,66.3317642211914 L506.414306640625,67.66826629638672 L506.1219787597656,68.91207885742188 L505.9090881347656,69.94477844238281 L505.82037353515625,70.65264129638672 L505.8666076660156,70.93772888183594 L506.0737609863281,70.73986053466797 L506.46392822265625,70.02542114257812 L507.0430908203125,68.82568359375 L507.81854248046875,67.28511047363281 L508.77081298828125,65.59658813476562 L509.84796142578125,63.947731018066406 L511.0126037597656,62.509544372558594 L512.21044921875,61.395965576171875 L513.3880615234375,60.678489685058594 L514.4911499023438,60.42609786987305 L515.44384765625,60.667545318603516 L516.1678466796875,61.37841796875 L516.6273193359375,62.4951057434082 L516.818115234375,63.897613525390625 L516.797119140625,65.43465423583984 L516.6525268554688,66.93523406982422 L516.4730224609375,68.23970031738281 L516.3299560546875,69.1520767211914 L516.2527465820312,69.64521026611328 M534.7276611328125,59.82416534423828 L534.574951171875,59.591270446777344 L534.161865234375,59.27458953857422 L533.3768920898438,58.99437713623047 L532.2178955078125,58.93317413330078 L530.8038940429688,59.16964340209961 L529.342041015625,59.696685791015625 L528.0929565429688,60.43373489379883 L527.281005859375,61.28873825073242 L527.0401000976562,62.1619758605957 L527.4130859375,62.9923210144043 L528.3504028320312,63.75139236450195 L529.7152709960938,64.43987274169922 L531.3301391601562,65.0986328125 L532.9797973632812,65.77607727050781 L534.4412231445312,66.50471496582031 L535.5158081054688,67.28754425048828 L536.0587158203125,68.0919189453125 L536.0046997070312,68.87896728515625 L535.3653564453125,69.61788940429688 L534.2022094726562,70.26632690429688 L532.6319580078125,70.77674102783203 L530.8145141601562,71.10348510742188 L528.9318237304688,71.2118148803711 L527.2495727539062,71.04434204101562 L525.9976196289062,70.5888900756836 L525.309326171875,69.88431549072266 L525.0853271484375,69.1871109008789 L525.124755859375,68.68412017822266 M540.7944946289062,50.01723861694336 L540.8029174804688,50.443302154541016 L540.792236328125,51.289634704589844 L540.749267578125,52.59258270263672 L540.67431640625,54.25960159301758 L540.6099243164062,56.241050720214844 L540.5623779296875,58.443397521972656 L540.538818359375,60.76369857788086 L540.5216064453125,63.06793975830078 L540.4848022460938,65.20260620117188 L540.4146728515625,67.02879333496094 L540.3340454101562,68.47724914550781 L540.2376708984375,69.44659423828125 L540.1380615234375,69.89388275146484 L540.0418701171875,69.8514175415039 L539.9644165039062,69.5604248046875 L539.9129638671875,69.2470703125 M537.51318359375,61.32508850097656 L537.7609252929688,61.43416976928711 L538.2815551757812,61.64350891113281 L539.115966796875,61.9437370300293 L540.260986328125,62.265235900878906 L541.6409301757812,62.5398063659668 L543.1193237304688,62.70659255981445 L544.331787109375,62.76860427856445 L545.0926513671875,62.765506744384766 M546.3955688476562,60.58150863647461 L546.50439453125,60.929443359375 L546.7476196289062,61.524723052978516 L547.1465454101562,62.31595993041992 L547.708251953125,63.170345306396484 L548.4252319335938,64.04994201660156 L549.2771606445312,64.89828491210938 L550.2266235351562,65.6834945678711 L551.2642822265625,66.31430053710938 L552.3361206054688,66.7000503540039 L553.4072265625,66.79302215576172 L554.2623291015625,66.70529174804688 L554.80029296875,66.5582046508789 M556.606689453125,61.72772979736328 L556.3473510742188,62.2010383605957 L555.8302001953125,63.0797119140625 L555.0347290039062,64.3626480102539 L554.0309448242188,65.9361343383789 L552.895263671875,67.79071807861328 L551.72021484375,69.86067199707031 L550.612548828125,72.05960083007812 L549.6983642578125,74.22856140136719 L549.0762939453125,76.13615417480469 L548.796142578125,77.58354187011719 L548.7618408203125,78.46797180175781 L548.8382568359375,78.86087799072266 M561.4502563476562,50.92942428588867 L561.2841796875,51.454872131347656 L560.9946899414062,52.473854064941406 L560.5977783203125,54.003414154052734 L560.1705322265625,55.90726852416992 L559.7664794921875,58.08484649658203 L559.427490234375,60.3934326171875 L559.1868286132812,62.7120475769043 L559.0677490234375,64.87825775146484 L559.0609741210938,66.7225341796875 L559.149658203125,68.12471771240234 L559.2664794921875,68.99819946289062 L559.358154296875,69.40704345703125 M562.56787109375,66.78778839111328 L562.8837280273438,66.8128433227539 L563.4370727539062,66.78233337402344 L564.1940307617188,66.6252670288086 L565.049072265625,66.28858947753906 L565.9617309570312,65.77542877197266 L566.8815307617188,65.10480499267578 L567.767822265625,64.30900573730469 L568.552734375,63.39781188964844 L569.15966796875,62.412715911865234 L569.5206298828125,61.43476104736328 L569.58447265625,60.57536315917969 L569.3369140625,59.93876647949219 L568.8059692382812,59.61806869506836 L568.0512084960938,59.664676666259766 L567.1576538085938,60.11514663696289 L566.2293090820312,60.96881866455078 L565.3782348632812,62.18015670776367 L564.7216796875,63.6565055847168 L564.37353515625,65.2845230102539 L564.411376953125,66.92710876464844 L564.876953125,68.44914245605469 L565.778076171875,69.72650146484375 L567.0650634765625,70.6727066040039 L568.6952514648438,71.1852035522461 L570.552490234375,71.24022674560547 L572.4572143554688,70.87981414794922 L573.9819946289062,70.37834930419922 L574.9242553710938,69.95846557617188 M586.986572265625,53.76459503173828 L586.73828125,53.5150032043457 L586.2850952148438,53.26704406738281 L585.6000366210938,53.204139709472656 L584.71337890625,53.546485900878906 L583.6421508789062,54.357337951660156 L582.4602661132812,55.634864807128906 L581.2962036132812,57.30303192138672 L580.318115234375,59.27131652832031 L579.67578125,61.385135650634766 L579.4841918945312,63.469520568847656 L579.8135986328125,65.34003448486328 L580.678955078125,66.82460021972656 L582.0474243164062,67.79239654541016 L583.822998046875,68.15738677978516 L585.8816528320312,67.89362335205078 L588.0623168945312,67.02659606933594 L590.180908203125,65.62531280517578 L592.0501098632812,63.78776931762695 L593.5089111328125,61.64445877075195 L594.4358520507812,59.3377571105957 L594.78466796875,57.0373649597168 L594.5558471679688,54.89873504638672 L593.8034057617188,53.07782745361328 L592.49853515625,51.76206970214844 L590.70849609375,51.065399169921875 L588.5947875976562,51.00203323364258 L586.748046875,51.29261779785156 L585.5245971679688,51.642642974853516 " fill="none" stroke="red" stroke-linecap="round" stroke-width="1" /><path d="M0,0 M431.076171875,105.0 L431.1085205078125,105.05390930175781 L431.1408996582031,105.30531311035156 L431.14532470703125,105.88816833496094 L431.0762939453125,106.87896728515625 L430.9062194824219,108.2591552734375 L430.61297607421875,109.97569274902344 L430.18536376953125,111.95696258544922 L429.6520690917969,114.11634063720703 L429.08514404296875,116.33570098876953 L428.59710693359375,118.45110321044922 L428.3063659667969,120.27812957763672 L428.3304443359375,121.68284606933594 L428.74566650390625,122.60809326171875 L429.56658935546875,123.06163024902344 L430.7554931640625,123.10912322998047 L432.2200622558594,122.852294921875 L433.7948913574219,122.40489196777344 L435.3194580078125,121.89816284179688 L436.63494873046875,121.4424057006836 L437.6365661621094,121.07813262939453 L438.3131103515625,120.80127716064453 L438.7308349609375,120.58149719238281 L438.95050048828125,120.41941833496094 L439.052978515625,120.3182373046875 M442.11651611328125,114.96060943603516 L442.2434997558594,115.1379165649414 L442.39959716796875,115.5472412109375 L442.5190124511719,116.26322174072266 L442.5334167480469,117.29046630859375 L442.46990966796875,118.57271575927734 L442.36700439453125,119.95292663574219 L442.3000183105469,121.26610565185547 L442.317138671875,122.2987060546875 L442.4219970703125,122.90990447998047 L442.5960693359375,123.06852722167969 L442.769775390625,122.9540786743164 L442.8861999511719,122.7522964477539 M442.8355712890625,108.28797149658203 L442.8681945800781,108.18305969238281 L442.9849548339844,108.096923828125 L443.1383972167969,108.05249786376953 L443.2810363769531,108.0727310180664 M447.7351379394531,113.02359771728516 L447.6875,113.55290222167969 L447.597900390625,114.51102447509766 L447.47216796875,115.8570327758789 L447.33245849609375,117.38179016113281 L447.18780517578125,118.91963195800781 L447.0782165527344,120.30997467041016 L447.01446533203125,121.42752838134766 L447.0260314941406,122.15298461914062 L447.1287841796875,122.40672302246094 L447.3412170410156,122.13568115234375 L447.6669616699219,121.30948638916016 L448.1552429199219,119.99232482910156 L448.8218078613281,118.33407592773438 L449.7062683105469,116.52978515625 L450.79193115234375,114.7882080078125 L452.02581787109375,113.27338409423828 L453.30615234375,112.09554290771484 L454.53472900390625,111.3439712524414 L455.60211181640625,111.08065795898438 L456.4619445800781,111.35030364990234 L457.0797424316406,112.16211700439453 L457.45037841796875,113.45545959472656 L457.5918273925781,115.10237884521484 L457.5614929199219,116.92355346679688 L457.4389343261719,118.688232421875 L457.3202209472656,120.20465087890625 L457.25140380859375,121.25491333007812 L457.2344665527344,121.81550598144531 M460.785888671875,118.46148681640625 L461.050048828125,118.49644470214844 L461.60504150390625,118.4428482055664 L462.4767150878906,118.19319152832031 L463.582763671875,117.63404846191406 L464.79833984375,116.76187133789062 L465.99322509765625,115.62945556640625 L467.0250549316406,114.36276245117188 L467.77972412109375,113.09674835205078 L468.160400390625,111.96466064453125 L468.11224365234375,111.06400299072266 L467.6146545410156,110.50959777832031 L466.70263671875,110.39110565185547 L465.4688720703125,110.79656219482422 L464.09112548828125,111.73636627197266 L462.80548095703125,113.1473617553711 L461.8745422363281,114.8852767944336 L461.51495361328125,116.75672912597656 L461.87261962890625,118.53952026367188 L462.949951171875,120.05035400390625 L464.7065124511719,121.10067749023438 L466.957763671875,121.619140625 L469.4197998046875,121.63738250732422 L471.4501953125,121.39984893798828 L472.73297119140625,121.13138580322266 M478.6951904296875,110.45735931396484 L478.80859375,110.25688171386719 L479.1424560546875,109.91783905029297 L479.7977294921875,109.474365234375 L480.81585693359375,109.03178405761719 L482.1725769042969,108.67002868652344 L483.7530212402344,108.46266174316406 L485.41259765625,108.46395874023438 L486.99371337890625,108.71427154541016 L488.3292236328125,109.20575714111328 L489.2731628417969,109.93842315673828 L489.7098388671875,110.90779876708984 L489.57025146484375,112.1026611328125 L488.861572265625,113.50582122802734 L487.6633605957031,115.06434631347656 L486.12786865234375,116.67387390136719 L484.44952392578125,118.2386245727539 L482.819091796875,119.66207122802734 L481.419677734375,120.87394714355469 L480.3692626953125,121.83979797363281 L479.7418518066406,122.55050659179688 L479.5885009765625,123.0057144165039 L479.94512939453125,123.22209930419922 L480.82269287109375,123.22496795654297 L482.21002197265625,123.05033874511719 L483.9967041015625,122.74517059326172 L486.03118896484375,122.38018798828125 L488.13311767578125,122.01539611816406 L490.15277099609375,121.6574935913086 L491.954345703125,121.30792999267578 L493.4578857421875,120.94705963134766 L494.4939880371094,120.63738250732422 L495.05810546875,120.4291763305664 M502.7149353027344,117.71253204345703 L502.65032958984375,118.36434173583984 L502.568359375,119.42388916015625 L502.51666259765625,120.75391387939453 L502.5552978515625,122.05350494384766 L502.70733642578125,123.18645477294922 L502.9370422363281,124.0562973022461 L503.150634765625,124.61611938476562 L503.2926330566406,124.88729095458984 M502.61468505859375,110.96070861816406 L502.64752197265625,110.93541717529297 L502.7027893066406,110.909423828125 L502.76025390625,110.89047241210938 L502.79974365234375,110.88632202148438 M506.99334716796875,115.3847885131836 L506.9906921386719,115.40805053710938 L506.9737548828125,115.5501937866211 L506.9272155761719,115.91316223144531 L506.8406677246094,116.57140350341797 L506.7156677246094,117.51385498046875 L506.583984375,118.67066955566406 L506.48065185546875,119.89655303955078 L506.436767578125,121.02973937988281 L506.45733642578125,121.93899536132812 L506.5391845703125,122.53277587890625 L506.6622619628906,122.75210571289062 L506.8575439453125,122.56210327148438 L507.1668701171875,121.93492126464844 L507.6387023925781,120.89805603027344 L508.303955078125,119.56275939941406 L509.1664733886719,118.10343170166016 L510.1593017578125,116.71550750732422 L511.22271728515625,115.54203796386719 L512.2861328125,114.6822280883789 L513.3013305664062,114.19033813476562 L514.240478515625,114.09683990478516 L515.0885620117188,114.4189224243164 L515.7875366210938,115.14226531982422 L516.2965087890625,116.258056640625 L516.598388671875,117.68873596191406 L516.7224731445312,119.28211975097656 L516.7383422851562,120.61975860595703 L516.7221069335938,121.47615814208984 M536.04931640625,114.2647476196289 L535.7799072265625,113.98135375976562 L535.247802734375,113.5789566040039 L534.425048828125,113.18512725830078 L533.3778076171875,112.98519897460938 L532.1591796875,113.03524780273438 L530.8936767578125,113.33972930908203 L529.761962890625,113.85874938964844 L528.968505859375,114.54512786865234 L528.7012939453125,115.35591125488281 L529.0712890625,116.26133728027344 L530.04443359375,117.22079467773438 L531.4954833984375,118.20179748535156 L533.2194213867188,119.18238830566406 L534.9791259765625,120.13566589355469 L536.557861328125,121.02906036376953 L537.780029296875,121.84394836425781 L538.4954223632812,122.55607604980469 L538.60986328125,123.15459442138672 L538.0747680664062,123.6476821899414 L536.907958984375,124.04900360107422 L535.22216796875,124.35069274902344 L533.234375,124.54036712646484 L531.1826171875,124.60691833496094 L529.3515625,124.47439575195312 L527.974609375,124.1008071899414 L527.1756591796875,123.49909973144531 L526.8613891601562,122.8854751586914 L526.846435546875,122.42903137207031 M543.9807739257812,108.32453155517578 L543.9965209960938,108.56670379638672 L543.9930419921875,109.12248229980469 L543.9473876953125,110.07901000976562 L543.8381958007812,111.4139633178711 L543.6873168945312,113.0733642578125 L543.5263061523438,114.94679260253906 L543.40673828125,116.92160034179688 L543.3897705078125,118.88933563232422 L543.5003051757812,120.71053314208984 L543.7202758789062,122.2373275756836 L543.954833984375,123.28720092773438 L544.1224975585938,123.83928680419922 M539.64013671875,115.16984558105469 L539.750244140625,115.16539764404297 L540.10595703125,115.1730728149414 L540.8101806640625,115.20262145996094 L541.9727172851562,115.24346923828125 L543.5433349609375,115.27125549316406 L545.369140625,115.26150512695312 L546.9403686523438,115.22573852539062 L547.970703125,115.18531036376953 M550.9019165039062,114.01750946044922 L550.87548828125,114.02449798583984 L550.89892578125,114.14521789550781 L551.0198364257812,114.47509002685547 L551.2750854492188,115.07420349121094 L551.65283203125,115.90763092041016 L552.1436767578125,116.88758850097656 L552.7269287109375,117.91277313232422 L553.4490966796875,118.86259460449219 L554.3193359375,119.63172149658203 L555.3101196289062,120.1416244506836 L556.1708984375,120.39498138427734 L556.7493286132812,120.46155548095703 M561.5264892578125,114.66229248046875 L561.4505615234375,114.72394561767578 L561.2327270507812,114.98851013183594 L560.79638671875,115.58546447753906 L560.1159057617188,116.58901977539062 L559.2030029296875,117.97135162353516 L558.1190185546875,119.67513275146484 L556.939697265625,121.5949935913086 L555.77001953125,123.62906646728516 L554.7100219726562,125.64321899414062 L553.86767578125,127.51143646240234 L553.3544921875,129.0335693359375 L553.231689453125,130.04718017578125 L553.47705078125,130.46334838867188 L553.8665161132812,130.4649658203125 L554.2037353515625,130.27896118164062 M565.7825927734375,109.20065307617188 L565.7779541015625,109.5145492553711 L565.70361328125,110.17930603027344 L565.5073852539062,111.25438690185547 L565.1746826171875,112.68807220458984 L564.7623901367188,114.40986633300781 L564.366943359375,116.29867553710938 L564.099609375,118.208251953125 L564.04443359375,119.97187805175781 L564.2476196289062,121.42386627197266 L564.7454833984375,122.42637634277344 L565.5493774414062,122.89328002929688 L566.65234375,122.78923034667969 L568.014404296875,122.14138793945312 L569.549072265625,121.03996276855469 L571.1036376953125,119.61922454833984 L572.5250854492188,118.0408706665039 L573.6472778320312,116.47146606445312 L574.3638305664062,115.04773712158203 L574.6484375,113.8686752319336 L574.5428466796875,113.02606964111328 L574.084228515625,112.5953369140625 L573.341064453125,112.64824676513672 L572.3765258789062,113.23197174072266 L571.3037109375,114.32157897949219 L570.315673828125,115.80216979980469 L569.646240234375,117.52454376220703 L569.4442749023438,119.3087158203125 L569.906982421875,120.95562744140625 L571.0584716796875,122.28468322753906 L572.7689208984375,123.16281127929688 L574.4221801757812,123.59740447998047 L575.5999755859375,123.72077178955078 M592.0484619140625,108.11918640136719 L591.9642944335938,108.26619720458984 L591.7803955078125,108.59227752685547 L591.4563598632812,109.11842346191406 L591.0184936523438,109.80738067626953 L590.5183715820312,110.5901870727539 L590.0919189453125,111.41716766357422 L589.8964233398438,112.25749206542969 L590.0946044921875,113.08797454833984 L590.7546997070312,113.8760757446289 L591.8814697265625,114.61202239990234 L593.3397216796875,115.27818298339844 L594.9703979492188,115.89624786376953 L596.5789794921875,116.49349212646484 L598.0299072265625,117.08157348632812 L599.233154296875,117.65702056884766 L600.1676025390625,118.23116302490234 L600.80615234375,118.8123550415039 L601.1158447265625,119.41834259033203 L601.0358276367188,120.06910705566406 L600.5126953125,120.75410461425781 L599.5264282226562,121.45599365234375 L598.1148681640625,122.13525390625 L596.3782958984375,122.75543975830078 L594.3924560546875,123.21304321289062 L592.3103637695312,123.42928314208984 L590.2938232421875,123.35758972167969 L588.7350463867188,123.13646697998047 L587.797119140625,122.90455627441406 M587.6211547851562,108.34749603271484 L588.416259765625,108.04174041748047 L589.9934692382812,107.59178161621094 L592.3587646484375,107.09342193603516 L595.29150390625,106.7106704711914 L598.4921875,106.47067260742188 L601.62548828125,106.38175964355469 L604.04931640625,106.37584686279297 L605.5040283203125,106.40528106689453 " fill="none" stroke="blue" stroke-linecap="round" stroke-width="2" /><path d="M0,0 M424.08447265625,165.69656372070312 L424.0843200683594,165.65245056152344 L424.1036682128906,165.60205078125 L424.150634765625,165.58863830566406 L424.2035217285156,165.67926025390625 L424.22564697265625,165.95790100097656 L424.1740417480469,166.51951599121094 L424.0481872558594,167.4455108642578 L423.842041015625,168.76803588867188 L423.575927734375,170.478515625 L423.24517822265625,172.51524353027344 L422.8621520996094,174.79685974121094 L422.4210510253906,177.19544982910156 L421.9799499511719,179.56396484375 L421.5938720703125,181.69802856445312 L421.33343505859375,183.43682861328125 L421.229248046875,184.6989288330078 L421.29498291015625,185.49363708496094 L421.5230407714844,185.87496948242188 L421.9451904296875,185.93350219726562 L422.5984802246094,185.6795654296875 L423.53558349609375,185.11766052246094 L424.76953125,184.2860565185547 L426.2463073730469,183.26693725585938 L427.8892822265625,182.16944885253906 L429.5510559082031,181.14637756347656 L431.07818603515625,180.28329467773438 L432.2091369628906,179.68807983398438 L432.8625183105469,179.36851501464844 M437.4623718261719,171.989990234375 L437.47442626953125,171.968505859375 L437.4842224121094,172.06044006347656 L437.4640197753906,172.4045867919922 L437.3742370605469,173.1428680419922 L437.18353271484375,174.32249450683594 L436.86871337890625,175.9047393798828 L436.44158935546875,177.77001953125 L435.9680480957031,179.7689971923828 L435.5235595703125,181.7341766357422 L435.1689453125,183.49990844726562 L434.943359375,184.950439453125 L434.8348693847656,185.95191955566406 L434.81732177734375,186.4326171875 L434.8651428222656,186.41616821289062 L434.93231201171875,186.14633178710938 L434.98382568359375,185.84091186523438 M438.50048828125,166.17601013183594 L438.50787353515625,166.11572265625 L438.50091552734375,166.0218963623047 L438.4669494628906,165.90609741210938 L438.4255676269531,165.8040313720703 L438.4164733886719,165.7321014404297 L438.44940185546875,165.6866455078125 L438.517822265625,165.65440368652344 L438.6197509765625,165.6253204345703 L438.7506103515625,165.5873260498047 L438.9471130371094,165.5501251220703 L439.15374755859375,165.52285766601562 L439.31744384765625,165.5096435546875 M444.5774841308594,176.6097869873047 L444.3470153808594,177.51499938964844 L443.99822998046875,178.9970245361328 L443.582275390625,180.8865203857422 L443.17919921875,182.7950439453125 L442.8027038574219,184.55126953125 L442.4705505371094,185.9985809326172 L442.2013854980469,187.08084106445312 L442.03143310546875,187.7286376953125 L441.9812316894531,187.91375732421875 L442.0365295410156,187.5972442626953 L442.205322265625,186.72164916992188 L442.51629638671875,185.2682647705078 L443.0208740234375,183.36448669433594 L443.76898193359375,181.23223876953125 L444.7984313964844,179.12733459472656 L446.0726318359375,177.24911499023438 L447.5140380859375,175.7104034423828 L449.0126647949219,174.57769775390625 L450.4468994140625,173.91966247558594 L451.7039794921875,173.78517150878906 L452.698486328125,174.2034912109375 L453.3707580566406,175.14608764648438 L453.689208984375,176.53733825683594 L453.67181396484375,178.2655029296875 L453.3761291503906,180.18492126464844 L452.8973388671875,182.12921142578125 L452.3543701171875,183.95970153808594 L451.89141845703125,185.51123046875 L451.5986633300781,186.6577606201172 L451.5160217285156,187.33447265625 L451.5657653808594,187.61676025390625 L451.65374755859375,187.65272521972656 M454.9915466308594,181.54420471191406 L455.2648620605469,181.50494384765625 L455.83306884765625,181.3177490234375 L456.7208251953125,180.89088439941406 L457.8499450683594,180.1756134033203 L459.1246337890625,179.21395874023438 L460.42730712890625,178.0752716064453 L461.6542663574219,176.85659790039062 L462.70648193359375,175.64752197265625 L463.49346923828125,174.5335235595703 L463.94903564453125,173.57928466796875 L464.037841796875,172.84201049804688 L463.777099609375,172.35641479492188 L463.19268798828125,172.169921875 L462.32684326171875,172.33216857910156 L461.247314453125,172.89913940429688 L460.0364990234375,173.8876495361328 L458.807373046875,175.2893829345703 L457.70721435546875,177.04046630859375 L456.84747314453125,179.02529907226562 L456.3356018066406,181.06175231933594 L456.24627685546875,182.94273376464844 L456.6072082519531,184.47145080566406 L457.39532470703125,185.54000854492188 L458.62530517578125,186.05987548828125 L460.2028503417969,186.04237365722656 L462.0015869140625,185.55702209472656 L463.54290771484375,184.93299865722656 L464.5529479980469,184.42568969726562 M478.67022705078125,169.97474670410156 L478.8440246582031,169.6450653076172 L479.272705078125,169.09048461914062 L480.034912109375,168.36793518066406 L481.14208984375,167.62408447265625 L482.556640625,166.9407958984375 L484.177490234375,166.39892578125 L485.88018798828125,166.0533447265625 L487.51751708984375,165.92730712890625 L488.94134521484375,166.00758361816406 L490.02374267578125,166.2603302001953 L490.654296875,166.6629180908203 L490.7257080078125,167.21058654785156 L490.18914794921875,167.91128540039062 L489.0770263671875,168.75233459472656 L487.541259765625,169.6773223876953 L485.8399353027344,170.59751892089844 L484.26263427734375,171.43484497070312 L483.0327453613281,172.13848876953125 L482.2909240722656,172.71420288085938 L482.07611083984375,173.22669982910156 L482.3526611328125,173.73638916015625 L483.0758056640625,174.2960662841797 L484.1686706542969,174.94923400878906 L485.50860595703125,175.70697021484375 L486.9433288574219,176.58624267578125 L488.2862854003906,177.60826110839844 L489.360107421875,178.76307678222656 L490.06683349609375,180.0128631591797 L490.3632507324219,181.30276489257812 L490.2579345703125,182.55677795410156 L489.78033447265625,183.7194061279297 L488.9638366699219,184.7510986328125 L487.84222412109375,185.62132263183594 L486.4847717285156,186.29495239257812 L484.9801940917969,186.74819946289062 L483.4353332519531,186.97140502929688 L481.9382019042969,186.964111328125 L480.5693359375,186.73721313476562 L479.3630676269531,186.317626953125 L478.342529296875,185.74392700195312 L477.5202941894531,185.0657196044922 L476.8988342285156,184.3546600341797 L476.45068359375,183.67352294921875 L476.1515197753906,183.0795135498047 L475.96026611328125,182.62344360351562 L475.8455810546875,182.33993530273438 L475.7978210449219,182.21815490722656 L475.8093566894531,182.22271728515625 L475.86328125,182.2975311279297 L475.92779541015625,182.37759399414062 L475.97723388671875,182.4296112060547 M505.98223876953125,172.98670959472656 L505.987548828125,172.96104431152344 L506.0067138671875,172.90321350097656 L506.037109375,172.81040954589844 L506.0587463378906,172.7206268310547 L506.05987548828125,172.74990844726562 L506.0185546875,173.03797912597656 L505.93115234375,173.73947143554688 L505.7921142578125,174.91563415527344 L505.57965087890625,176.52066040039062 L505.264404296875,178.42555236816406 L504.87353515625,180.49520874023438 L504.4406433105469,182.57872009277344 L504.0302734375,184.5248260498047 L503.70794677734375,186.16067504882812 L503.49505615234375,187.37814331054688 L503.39202880859375,188.0694580078125 L503.40045166015625,188.23155212402344 L503.4917297363281,187.96180725097656 L503.60357666015625,187.53684997558594 L503.6952819824219,187.16513061523438 M506.76373291015625,166.3363037109375 L506.91741943359375,166.03463745117188 L507.11407470703125,165.64108276367188 L507.2908935546875,165.27098083496094 L507.394775390625,165.08412170410156 L507.4517822265625,165.0824432373047 L507.49444580078125,165.22059631347656 L507.5377502441406,165.38319396972656 L507.5722961425781,165.51222229003906 M509.92767333984375,170.27880859375 L509.98321533203125,170.16160583496094 L510.0534362792969,170.064453125 L510.11077880859375,170.12660217285156 L510.1058044433594,170.53488159179688 L509.9979553222656,171.3878631591797 L509.76934814453125,172.70306396484375 L509.4279479980469,174.4097900390625 L508.9962463378906,176.40170288085938 L508.52728271484375,178.55406188964844 L508.07763671875,180.7682647705078 L507.6825256347656,182.8970489501953 L507.3687438964844,184.77708435058594 L507.16436767578125,186.279541015625 L507.06634521484375,187.30824279785156 L507.0548400878906,187.80838012695312 L507.1184387207031,187.76470947265625 L507.2423095703125,187.116455078125 L507.4538879394531,185.84857177734375 L507.818603515625,184.0669403076172 L508.393798828125,181.95472717285156 L509.2003173828125,179.72340393066406 L510.254638671875,177.55462646484375 L511.52923583984375,175.55029296875 L512.9740600585938,173.800048828125 L514.505859375,172.39332580566406 L516.0075073242188,171.42755126953125 L517.3338623046875,170.98086547851562 L518.3843383789062,171.10752868652344 L519.1104736328125,171.82591247558594 L519.4971923828125,173.11741638183594 L519.5762939453125,174.8773193359375 L519.399169921875,176.9590301513672 L519.0311889648438,179.17922973632812 L518.5571899414062,181.36497497558594 L518.0801391601562,183.36196899414062 L517.6764526367188,185.0590362548828 L517.4019775390625,186.3672637939453 L517.257568359375,187.26634216308594 L517.2086791992188,187.7748260498047 L517.2061767578125,187.99298095703125 M534.4444580078125,172.28115844726562 L534.3290405273438,171.98646545410156 L534.0724487304688,171.57884216308594 L533.64013671875,171.18154907226562 L533.033447265625,170.97219848632812 L532.2915649414062,171.01991271972656 L531.4512939453125,171.37216186523438 L530.5796508789062,172.02859497070312 L529.7880249023438,172.98175048828125 L529.1861572265625,174.18359375 L528.8674926757812,175.5662384033203 L528.8950805664062,177.0694580078125 L529.248291015625,178.64657592773438 L529.8740234375,180.2545928955078 L530.6824340820312,181.845703125 L531.5556640625,183.3486328125 L532.3773803710938,184.6931915283203 L533.0413208007812,185.8325653076172 L533.4583740234375,186.7615966796875 L533.5737915039062,187.5173797607422 L533.329345703125,188.1422882080078 L532.7002563476562,188.6632843017578 L531.719482421875,189.0828399658203 L530.4807739257812,189.3917236328125 L529.1425170898438,189.556884765625 L527.8927612304688,189.570556640625 L526.8717041015625,189.4480438232422 L526.200439453125,189.2809295654297 L525.8663940429688,189.1438751220703 M540.2084350585938,166.3026580810547 L540.1920166015625,166.36309814453125 L540.147216796875,166.60459899902344 L540.0736083984375,167.15379333496094 L539.94970703125,168.08126831054688 L539.7769165039062,169.3949432373047 L539.5452270507812,171.05328369140625 L539.2576293945312,172.9936065673828 L538.9222412109375,175.1442108154297 L538.5761108398438,177.44549560546875 L538.213623046875,179.80752563476562 L537.8602905273438,182.15762329101562 L537.532470703125,184.3949432373047 L537.25732421875,186.3752899169922 L537.0451049804688,187.9613037109375 L536.9193725585938,189.00367736816406 L536.8579711914062,189.521240234375 M535.0780639648438,176.38026428222656 L535.2483520507812,176.45724487304688 L535.6174926757812,176.60870361328125 L536.2307739257812,176.81539916992188 L537.0713500976562,177.0034637451172 L538.1065063476562,177.08657836914062 L539.2908935546875,177.01026916503906 L540.5474853515625,176.7566680908203 L541.8091430664062,176.33203125 L543.0151977539062,175.7581787109375 L544.1144409179688,175.0489959716797 L545.0699462890625,174.2407684326172 L545.848388671875,173.39955139160156 L546.4058837890625,172.61349487304688 L546.7354736328125,171.97640991210938 L546.8370361328125,171.5546875 L546.7357177734375,171.40029907226562 L546.4595947265625,171.5730743408203 L546.0223388671875,172.1234130859375 L545.4464111328125,173.086669921875 L544.796630859375,174.44789123535156 L544.1429443359375,176.10389709472656 L543.585693359375,177.91346740722656 L543.2141723632812,179.71279907226562 L543.1022338867188,181.33578491210938 L543.2886962890625,182.65298461914062 L543.7869262695312,183.56324768066406 L544.5751953125,183.99313354492188 L545.6223754882812,183.91500854492188 L546.8693237304688,183.325439453125 L548.2545166015625,182.26611328125 L549.690185546875,180.8404083251953 L551.0752563476562,179.1901092529297 L552.3248291015625,177.4729461669922 L553.384033203125,175.85467529296875 L554.206787109375,174.45848083496094 L554.7914428710938,173.36276245117188 L555.153564453125,172.6374969482422 L555.2985229492188,172.34127807617188 L555.255859375,172.5314178466797 L555.048095703125,173.28211975097656 L554.6718139648438,174.61080932617188 L554.1760864257812,176.43519592285156 L553.6135864257812,178.62718200683594 L553.0365600585938,181.03619384765625 L552.5043334960938,183.54257202148438 L552.0433349609375,186.07675170898438 L551.6280517578125,188.57846069335938 L551.243896484375,190.95956420898438 L550.835693359375,193.13356018066406 L550.3643188476562,195.01760864257812 L549.7919921875,196.55880737304688 L549.1173095703125,197.73715209960938 L548.34326171875,198.55978393554688 L547.480224609375,199.04776000976562 L546.532958984375,199.2571258544922 L545.495849609375,199.189697265625 L544.3953857421875,198.8634796142578 L543.3129272460938,198.31996154785156 L542.4656372070312,197.76998901367188 L541.950927734375,197.36270141601562 M559.5118408203125,165.41375732421875 L559.5325927734375,165.68270874023438 L559.5120849609375,166.25318908691406 L559.41259765625,167.18959045410156 L559.2106323242188,168.48216247558594 L558.906494140625,170.12779235839844 L558.5093994140625,172.11752319335938 L558.0394287109375,174.41656494140625 L557.49462890625,176.9379119873047 L556.9066162109375,179.56153869628906 L556.31884765625,182.14857482910156 L555.7818603515625,184.57054138183594 L555.3560791015625,186.6806640625 L555.1060180664062,188.3448486328125 L555.040283203125,189.46742248535156 L555.09228515625,190.06497192382812 L555.177001953125,190.27699279785156 M560.3023071289062,182.2238006591797 L560.59326171875,182.19754028320312 L561.1627807617188,182.03640747070312 L562.0191040039062,181.64283752441406 L563.072265625,180.94871520996094 L564.2459716796875,179.97735595703125 L565.4476928710938,178.80673217773438 L566.5784912109375,177.54244995117188 L567.5349731445312,176.294189453125 L568.21923828125,175.15501403808594 L568.5662841796875,174.1935272216797 L568.5537109375,173.46551513671875 L568.2003784179688,173.00714111328125 L567.5374755859375,172.85736083984375 L566.5911254882812,173.06845092773438 L565.4088134765625,173.69989013671875 L564.070556640625,174.80332946777344 L562.697021484375,176.37283325195312 L561.4353637695312,178.3296356201172 L560.4321899414062,180.53018188476562 L559.80078125,182.7823944091797 L559.6150512695312,184.8987579345703 L559.9063720703125,186.72584533691406 L560.6522216796875,188.15773010253906 L561.8843994140625,189.07398986816406 L563.5554809570312,189.41893005371094 L565.5477905273438,189.21481323242188 L567.3040771484375,188.7633514404297 L568.485107421875,188.334716796875 M591.9805297851562,168.37582397460938 L591.9935302734375,167.92112731933594 L591.94140625,167.2387237548828 L591.77001953125,166.46096801757812 L591.43359375,165.80117797851562 L590.921142578125,165.30772399902344 L590.2283325195312,165.03219604492188 L589.3660888671875,165.0 L588.353759765625,165.2801513671875 L587.2442626953125,165.9335174560547 L586.1168823242188,166.99252319335938 L585.0640869140625,168.44033813476562 L584.193115234375,170.19290161132812 L583.6009521484375,172.08311462402344 L583.3568725585938,173.90216064453125 L583.478515625,175.4414520263672 L583.9508666992188,176.54576110839844 L584.722412109375,177.1244354248047 L585.7158203125,177.1437530517578 L586.8367919921875,176.59732055664062 L587.9900512695312,175.54019165039062 L589.077880859375,174.09007263183594 L590.0362548828125,172.42982482910156 L590.83056640625,170.76185607910156 L591.449951171875,169.28460693359375 L591.893310546875,168.10794067382812 L592.1922607421875,167.29238891601562 L592.3598022460938,166.85426330566406 L592.3993530273438,166.79832458496094 L592.3118286132812,167.14881896972656 L592.091064453125,167.953369140625 L591.73388671875,169.21417236328125 L591.280029296875,170.8965301513672 L590.7603759765625,172.92156982421875 L590.2010498046875,175.1626739501953 L589.642333984375,177.507080078125 L589.1015625,179.83590698242188 L588.587646484375,182.03392028808594 L588.1026611328125,184.01072692871094 L587.6380615234375,185.7057647705078 L587.166748046875,187.0541534423828 L586.7103881835938,188.04116821289062 L586.2677001953125,188.64553833007812 L585.9205932617188,188.9296875 L585.7048950195312,189.006103515625 " fill="none" stroke="green" stroke-linecap="round" stroke-width="3" /></svg>