<?xml version="1.0" encoding="utf-8" ?>
<svg baseProfile="full" height="100%" version="1.1" viewBox="0,0,1000,240" width="100%" xmlns="http://www.w3.org/2000/svg" xmlns:ev="http://www.w3.org/2001/xml-events" xmlns:xlink="http://www.w3.org/1999/xlink"><defs /><rect fill="white" height="240" width="1000" x="0" y="0" /><path d="M0,0 M431.9162902832031,53.45941162109375 L432.3011169433594,53.055179595947266 L432.8121032714844,52.551177978515625 L433.2854919433594,52.22738265991211 L433.4893493652344,52.46839904785156 L433.382568359375,53.48146057128906 L433.00018310546875,55.33686447143555 L432.4174499511719,57.8740348815918 L431.7392578125,60.822479248046875 L431.0739440917969,63.81621170043945 L430.5015869140625,66.47593688964844 L430.0775146484375,68.56362915039062 L429.81298828125,69.97205352783203 L429.66693115234375,70.66127014160156 L429.6191101074219,70.62212371826172 L429.6570129394531,69.80714416503906 L429.8081970214844,68.15371704101562 L430.10321044921875,65.7544174194336 L430.52435302734375,62.84885787963867 L431.0325927734375,59.7733268737793 L431.5871887207031,56.85166931152344 L432.1551208496094,54.326072692871094 L432.722412109375,52.304481506347656 L433.240478515625,50.82375717163086 L433.6405334472656,49.91436004638672 L433.8853454589844,49.64445495605469 L433.97314453125,50.078392028808594 L433.94268798828125,51.267005920410156 L433.8599853515625,53.14814376831055 L433.7778015136719,55.49592590332031 L433.7508239746094,57.98091506958008 L433.8153991699219,60.27164840698242 L434.0083923339844,62.098365783691406 L434.3529052734375,63.299102783203125 L434.8773193359375,63.80085754394531 L435.5975036621094,63.59135818481445 L436.5343017578125,62.676307678222656 L437.6565246582031,61.1263542175293 L438.93133544921875,59.11208724975586 L440.27801513671875,56.87113952636719 L441.6018981933594,54.6739501953125 L442.802734375,52.8010139465332 L443.81170654296875,51.404842376708984 L444.55609130859375,50.544368743896484 L445.00653076171875,50.24004364013672 L445.1632995605469,50.498512268066406 L445.0585021972656,51.34136199951172 L444.75946044921875,52.832489013671875 L444.3334045410156,54.903541564941406 L443.83441162109375,57.39719009399414 L443.30023193359375,60.097984313964844 L442.8018798828125,62.786556243896484 L442.41180419921875,65.2781753540039 L442.201171875,67.4623794555664 L442.17449951171875,69.236083984375 L442.28521728515625,70.5582275390625 L442.4602355957031,71.37580871582031 L442.6601257324219,71.69817352294922 L442.8594055175781,71.58768463134766 L443.0235900878906,71.28282928466797 L443.1322937011719,70.98490905761719 M444.1576843261719,65.7917709350586 L444.3185119628906,65.83922576904297 L444.6747741699219,65.90255737304688 L445.27252197265625,65.9159164428711 L446.090576171875,65.78064727783203 L447.10296630859375,65.4106674194336 L448.2607727050781,64.75531005859375 L449.4947509765625,63.83615493774414 L450.756103515625,62.713436126708984 L451.99261474609375,61.45222473144531 L453.12255859375,60.128150939941406 L454.0649719238281,58.81432342529297 L454.7381286621094,57.5799446105957 L455.0793151855469,56.50947952270508 L455.0857238769531,55.667137145996094 L454.7936096191406,55.097808837890625 L454.2341003417969,54.83666229248047 L453.427734375,54.915916442871094 L452.39349365234375,55.37150573730469 L451.1813049316406,56.23367691040039 L449.8798828125,57.51252746582031 L448.61505126953125,59.168678283691406 L447.5413818359375,61.09771728515625 L446.7754211425781,63.139312744140625 L446.3915100097656,65.09893798828125 L446.4214782714844,66.8020248413086 L446.8358154296875,68.13467407226562 L447.5757141113281,69.05438232421875 L448.6064147949219,69.54742431640625 L449.8681335449219,69.60514831542969 L451.29852294921875,69.21272277832031 L452.8387451171875,68.39299774169922 L454.422119140625,67.22107696533203 L455.9632873535156,65.82814025878906 L457.4087829589844,64.32841491699219 L458.71173095703125,62.79608154296875 L459.84783935546875,61.274559020996094 L460.8316345214844,59.81133270263672 L461.69525146484375,58.50153350830078 L462.4295959472656,57.454689025878906 L463.0208435058594,56.736122131347656 L463.4372863769531,56.315643310546875 L463.654052734375,56.11809158325195 L463.6696472167969,56.06517791748047 L463.48370361328125,56.149600982666016 L463.08367919921875,56.420799255371094 L462.47796630859375,56.9525032043457 L461.69842529296875,57.746673583984375 L460.8215026855469,58.763797760009766 L459.9457702636719,59.92518615722656 L459.17584228515625,61.14680099487305 L458.60845947265625,62.377750396728516 L458.3234558105469,63.59688186645508 L458.3726501464844,64.76498413085938 L458.7710266113281,65.84603118896484 L459.4650573730469,66.79861450195312 L460.3612060546875,67.5835189819336 L461.32122802734375,68.19906616210938 L462.194580078125,68.66644287109375 L462.8561096191406,69.0218276977539 L463.2146301269531,69.32693481445312 L463.2043151855469,69.63856506347656 L462.8083801269531,69.9974136352539 L462.0531005859375,70.41416931152344 L460.99267578125,70.84174346923828 L459.744140625,71.20970153808594 L458.451171875,71.46229553222656 L457.255615234375,71.5868911743164 L456.295166015625,71.56379699707031 L455.66790771484375,71.40037536621094 L455.3738098144531,71.09976196289062 L455.3149719238281,70.78133392333984 L455.36407470703125,70.53374481201172 M470.5608825683594,56.48103332519531 L470.59075927734375,56.16913986206055 L470.5473327636719,55.72347640991211 L470.36676025390625,55.27125930786133 L469.9905090332031,55.00093460083008 L469.40338134765625,54.98492431640625 L468.6417236328125,55.28350067138672 L467.7906494140625,55.89948272705078 L466.95404052734375,56.80419158935547 L466.2913513183594,57.92332077026367 L465.9537353515625,59.156349182128906 L466.0087890625,60.399749755859375 L466.4733581542969,61.60992431640625 L467.2652282714844,62.777835845947266 L468.2218933105469,63.91794967651367 L469.1312561035156,65.04649353027344 L469.7958068847656,66.18788146972656 L470.048828125,67.33154296875 L469.8468017578125,68.46171569824219 L469.24041748046875,69.52859497070312 L468.361083984375,70.44786834716797 L467.36199951171875,71.13934326171875 L466.39056396484375,71.56085205078125 L465.5451354980469,71.71241760253906 L464.9671936035156,71.5270004272461 L464.7566223144531,70.97908020019531 L464.963623046875,70.074951171875 L465.3674011230469,69.14925384521484 L465.753173828125,68.45857238769531 M473.2198486328125,56.91643524169922 L473.3085632324219,57.08333969116211 L473.4416198730469,57.5620002746582 L473.58453369140625,58.46699905395508 L473.6796569824219,59.76868438720703 L473.75225830078125,61.31919860839844 L473.828369140625,62.87453079223633 L473.9702453613281,64.22247314453125 L474.2239685058594,65.21415710449219 L474.60186767578125,65.77635192871094 L475.097900390625,65.853515625 L475.7445068359375,65.42525482177734 L476.5520935058594,64.47832489013672 L477.51068115234375,63.09250259399414 L478.5780029296875,61.44562911987305 L479.6506652832031,59.80171585083008 L480.5962829589844,58.39305877685547 L481.3236083984375,57.33989334106445 L481.783935546875,56.68859100341797 L481.9601745605469,56.45792770385742 L481.8857421875,56.719337463378906 L481.5740661621094,57.60493087768555 L481.0326232910156,59.18471908569336 L480.30718994140625,61.36262893676758 L479.4620361328125,63.96657943725586 L478.5820617675781,66.78727722167969 L477.7500305175781,69.66558837890625 L476.99853515625,72.49958038330078 L476.3426208496094,75.19969177246094 L475.77484130859375,77.63567352294922 L475.2681579589844,79.70061492919922 L474.8180847167969,81.32192993164062 L474.4190979003906,82.47222137451172 L474.0758056640625,83.16875457763672 L473.81988525390625,83.4932861328125 L473.66534423828125,83.5779037475586 L473.5949401855469,83.55555725097656 M496.020263671875,50.866092681884766 L495.8787536621094,50.825984954833984 L495.6265869140625,50.826927185058594 L495.24371337890625,50.95738983154297 L494.7171325683594,51.3286247253418 L494.0128173828125,52.03164291381836 L493.14208984375,53.13798904418945 L492.15399169921875,54.709320068359375 L491.1307373046875,56.76344299316406 L490.162841796875,59.249351501464844 L489.3323974609375,62.03564453125 L488.730224609375,64.93618774414062 L488.4058837890625,67.73851013183594 L488.3912353515625,70.27315521240234 L488.6759033203125,72.43158721923828 L489.2010803222656,74.1576156616211 L489.929931640625,75.37559509277344 L490.80340576171875,76.05177307128906 L491.7333984375,76.19760131835938 L492.502685546875,76.03449249267578 L492.9971008300781,75.79138946533203 M502.3896484375,54.867576599121094 L502.41839599609375,54.591033935546875 L502.44757080078125,54.226905822753906 L502.4509582519531,53.884559631347656 L502.4046630859375,53.715667724609375 L502.29443359375,53.768531799316406 L502.1094970703125,54.117759704589844 L501.8281555175781,54.85880661010742 L501.44744873046875,56.090633392333984 L500.970458984375,57.85234451293945 L500.4254150390625,60.08152770996094 L499.853271484375,62.64101028442383 L499.3123779296875,65.33048248291016 L498.84002685546875,67.89042663574219 L498.4685974121094,70.06664276123047 L498.21942138671875,71.69712829589844 L498.0828857421875,72.73779296875 L498.0462951660156,73.25506591796875 L498.093994140625,73.30901336669922 L498.222412109375,72.85301971435547 L498.4742431640625,71.8086929321289 L498.932861328125,70.17838287353516 L499.66668701171875,68.12443542480469 L500.7271728515625,65.96391296386719 L502.0670166015625,64.0127182006836 L503.55804443359375,62.481502532958984 L505.04595947265625,61.46607971191406 L506.38543701171875,60.991947174072266 L507.466552734375,61.05314636230469 L508.2507629394531,61.65766906738281 L508.689697265625,62.77111053466797 L508.75213623046875,64.30154418945312 L508.43548583984375,66.09151458740234 L507.7480163574219,67.97044372558594 L506.7279052734375,69.75320434570312 L505.46722412109375,71.30200958251953 L504.06158447265625,72.52439880371094 L502.6352844238281,73.35765838623047 L501.2955627441406,73.78569793701172 L500.1097412109375,73.86754608154297 L499.1337890625,73.63158416748047 L498.4185791015625,73.14686584472656 L497.9827575683594,72.49433898925781 L497.7890930175781,71.88819122314453 L497.749267578125,71.46554565429688 M511.273193359375,61.75355911254883 L511.2481384277344,61.9868278503418 L511.1965026855469,62.54915237426758 L511.12127685546875,63.550601959228516 L511.0076904296875,64.97119903564453 L510.8489990234375,66.70223236083984 L510.64508056640625,68.57503509521484 L510.4278869628906,70.39482116699219 L510.2568664550781,71.97088623046875 L510.1979064941406,73.17793273925781 L510.2497863769531,73.9457778930664 L510.353759765625,74.32112121582031 L510.44622802734375,74.4344482421875 M513.09765625,56.42401885986328 L513.2091064453125,56.09429931640625 L513.3761596679688,55.690792083740234 L513.542724609375,55.33311462402344 L513.6544799804688,55.169857025146484 L513.7138671875,55.16508865356445 L513.7564086914062,55.271461486816406 L513.797119140625,55.39002990722656 L513.8406372070312,55.490150451660156 M522.0740966796875,60.66498565673828 L522.123046875,60.494102478027344 L522.228759765625,60.221946716308594 L522.3560180664062,59.87774658203125 L522.4387817382812,59.53034210205078 L522.3992919921875,59.213050842285156 L522.180419921875,58.9782600402832 L521.75048828125,58.877559661865234 L521.11328125,58.996124267578125 L520.2491455078125,59.40864181518555 L519.1589965820312,60.17587661743164 L517.8985595703125,61.341064453125 L516.5853271484375,62.905372619628906 L515.3992919921875,64.78968811035156 L514.5269775390625,66.84300994873047 L514.0904541015625,68.84866333007812 L514.1224365234375,70.58463287353516 L514.593994140625,71.88819885253906 L515.4125366210938,72.6709213256836 L516.468505859375,72.904296875 L517.6591796875,72.57056427001953 L518.9014892578125,71.66140747070312 L520.134765625,70.2152099609375 L521.3541870117188,68.35923767089844 L522.5492553710938,66.2977523803711 L523.6837158203125,64.2990493774414 L524.6921997070312,62.59374237060547 L525.5012817382812,61.312992095947266 L526.03759765625,60.48265838623047 L526.2821655273438,60.09638595581055 L526.2224731445312,60.158843994140625 L525.8624267578125,60.74155807495117 L525.2055053710938,61.92768478393555 L524.3255004882812,63.6882209777832 L523.354248046875,65.86209869384766 L522.4603881835938,68.19574737548828 L521.78515625,70.40070343017578 L521.406494140625,72.22445678710938 L521.2806396484375,73.53483581542969 L521.3104248046875,74.31266021728516 L521.430908203125,74.60076141357422 L521.610107421875,74.50487518310547 L521.8648681640625,74.13540649414062 L522.1280517578125,73.70911407470703 L522.3363647460938,73.37723541259766 M531.849365234375,59.75143814086914 L531.7529296875,59.455657958984375 L531.5157470703125,59.05766677856445 L531.1013793945312,58.70280456542969 L530.5072021484375,58.560882568359375 L529.774169921875,58.67477035522461 L528.9869995117188,59.0620002746582 L528.2139892578125,59.70764923095703 L527.5515747070312,60.62943649291992 L527.095947265625,61.82827377319336 L526.91259765625,63.23331832885742 L527.0631713867188,64.76387786865234 L527.5462646484375,66.31258392333984 L528.265869140625,67.79713439941406 L529.0653076171875,69.17534637451172 L529.746337890625,70.40621185302734 L530.139404296875,71.45426940917969 L530.1547241210938,72.31376647949219 L529.7783203125,72.99078369140625 L529.0513305664062,73.51266479492188 L528.0704345703125,73.89799499511719 L526.94384765625,74.12928771972656 L525.7955322265625,74.17610931396484 L524.724365234375,74.03739166259766 L523.857177734375,73.7216567993164 L523.2758178710938,73.26522064208984 L523.0396118164062,72.72872161865234 L523.044189453125,72.26456451416016 L523.1546630859375,71.95439147949219 M550.96630859375,57.47283172607422 L550.6820068359375,57.322669982910156 L550.2001953125,57.18109893798828 L549.5364379882812,57.19087600708008 L548.7544555664062,57.5356559753418 L547.802978515625,58.317230224609375 L546.6972045898438,59.60322570800781 L545.4979248046875,61.38058090209961 L544.335693359375,63.55915069580078 L543.37353515625,65.9593505859375 L542.7582397460938,68.33307647705078 L542.5586547851562,70.44693756103516 L542.7705078125,72.1162109375 L543.37890625,73.24000549316406 L544.2918701171875,73.74687194824219 L545.4293212890625,73.6252670288086 L546.724853515625,72.88703155517578 L548.1103515625,71.60100555419922 L549.467529296875,69.86805725097656 L550.7225341796875,67.84706115722656 L551.7291870117188,65.66236114501953 L552.400390625,63.461402893066406 L552.69140625,61.349727630615234 L552.5888061523438,59.39497375488281 L552.1229248046875,57.645423889160156 L551.361328125,56.153526306152344 L550.3563232421875,54.930686950683594 L549.1949462890625,53.995540618896484 L547.9418334960938,53.37763977050781 L546.6812744140625,53.08372116088867 L545.5317993164062,53.100685119628906 L544.6837158203125,53.28148651123047 L544.1989135742188,53.47976303100586 M557.333740234375,70.5110855102539 L557.3065185546875,70.54328155517578 L557.3051147460938,70.58404541015625 L557.3261108398438,70.61995697021484 L557.3662109375,70.63761138916016 M567.26025390625,54.689300537109375 L567.339599609375,54.66446304321289 L567.5846557617188,54.57874298095703 L568.06298828125,54.39253234863281 L568.8048095703125,54.08472442626953 L569.7996826171875,53.67344665527344 L571.0137939453125,53.18952941894531 L572.4003295898438,52.67300033569336 L573.9261474609375,52.165802001953125 L575.507080078125,51.69137191772461 L577.0435791015625,51.256507873535156 L578.449951171875,50.87422561645508 L579.6063232421875,50.53588104248047 L580.4105224609375,50.25248718261719 L580.7734375,50.0421142578125 L580.5950927734375,49.936851501464844 L579.806640625,49.970542907714844 L578.4541015625,50.19627380371094 L576.6038818359375,50.6516227722168 L574.4453125,51.38652038574219 L572.20361328125,52.42729568481445 L570.1002807617188,53.779483795166016 L568.284912109375,55.38035202026367 L566.883544921875,57.110652923583984 L565.9270629882812,58.78033447265625 L565.4331665039062,60.193084716796875 L565.3912353515625,61.191993713378906 L565.780517578125,61.69025421142578 L566.5475463867188,61.66764831542969 L567.6444091796875,61.18954849243164 L569.0169067382812,60.39073181152344 L570.5498046875,59.45703125 L572.10498046875,58.585670471191406 L573.53125,57.93299865722656 L574.7330932617188,57.593570709228516 L575.6784057617188,57.620208740234375 L576.4026489257812,58.06340789794922 L576.9022216796875,58.950016021728516 L577.1627197265625,60.260948181152344 L577.146240234375,61.927616119384766 L576.8465576171875,63.837100982666016 L576.27001953125,65.86334991455078 L575.4524536132812,67.90513610839844 L574.4197998046875,69.86185455322266 L573.2007446289062,71.62421417236328 L571.8333740234375,73.08741760253906 L570.391357421875,74.17027282714844 L568.9495849609375,74.81999206542969 L567.644775390625,74.95259857177734 L566.6162719726562,74.55998229980469 L565.9462280273438,73.71543884277344 L565.6148681640625,72.80628204345703 L565.5240478515625,72.12831115722656 M583.2030639648438,45.0 L583.4447631835938,45.2266845703125 L583.9270629882812,45.66243362426758 L584.6505126953125,46.343223571777344 L585.5071411132812,47.24041748046875 L586.39453125,48.38398742675781 L587.193115234375,49.78544616699219 L587.8294067382812,51.486270904541016 L588.2715454101562,53.50086212158203 L588.503173828125,55.831424713134766 L588.489990234375,58.42778015136719 L588.2230224609375,61.25202941894531 L587.6767578125,64.20308685302734 L586.8558349609375,67.19995880126953 L585.82275390625,70.13958740234375 L584.660400390625,72.92015838623047 L583.4057006835938,75.45174407958984 L582.0779418945312,77.69734191894531 L580.6588134765625,79.60877227783203 L579.154296875,81.18934631347656 L577.6524658203125,82.37229919433594 L576.3167114257812,83.09801483154297 L575.2720947265625,83.33779907226562 L574.6180419921875,83.26653289794922 L574.3126220703125,83.07589721679688 " fill="none" stroke="black" stroke-linecap="round" stroke-width="2" /><path d="M0,0 M417.333740234375,110.42495727539062 L417.3566589355469,110.4053955078125 L417.3972473144531,110.5615234375 L417.44879150390625,111.09578704833984 L417.4721984863281,112.19584655761719 L417.4095153808594,113.90309143066406 L417.21820068359375,116.13410186767578 L416.8945617675781,118.70364379882812 L416.4869689941406,121.40099334716797 L416.0726318359375,124.01094055175781 L415.7255859375,126.32466125488281 L415.4679260253906,128.19866943359375 L415.31939697265625,129.46920776367188 L415.2621154785156,130.05667114257812 L415.2902526855469,130.0160369873047 L415.3519592285156,129.66427612304688 L415.41546630859375,129.27891540527344 M419.283935546875,110.82845306396484 L419.302734375,110.33126068115234 L419.3428039550781,109.6968002319336 L419.39794921875,109.12614440917969 L419.46771240234375,108.91925048828125 L419.5565490722656,109.18000793457031 L419.6512145996094,110.00028228759766 L419.7516784667969,111.41490936279297 L419.8600769042969,113.4153823852539 L419.9753112792969,115.83921813964844 L420.11444091796875,118.48375701904297 L420.2898864746094,121.1647720336914 L420.49981689453125,123.74473571777344 L420.7299499511719,126.11922454833984 L420.9639587402344,128.16871643066406 L421.18841552734375,129.7610626220703 L421.3870544433594,130.84234619140625 L421.5439758300781,131.4453887939453 L421.6391906738281,131.6255645751953 L421.66925048828125,131.3793182373047 L421.6802673339844,130.5948028564453 L421.75299072265625,129.12013244628906 L421.9599304199219,126.93476104736328 L422.3531494140625,124.20388793945312 L422.9236145019531,121.19078826904297 L423.62890625,118.15520477294922 L424.43597412109375,115.27293395996094 L425.320068359375,112.64407348632812 L426.22314453125,110.36128997802734 L427.0852966308594,108.52407836914062 L427.8146667480469,107.18988037109375 L428.34271240234375,106.37910461425781 L428.636474609375,106.07869720458984 L428.70184326171875,106.28140258789062 L428.5374755859375,106.98628234863281 L428.1718444824219,108.1573486328125 L427.6687316894531,109.6781005859375 L427.1431884765625,111.37350463867188 L426.69622802734375,113.04022216796875 L426.4129943847656,114.51982116699219 L426.30657958984375,115.71399688720703 L426.3393249511719,116.58403778076172 L426.4280090332031,117.11204528808594 L426.513427734375,117.36032104492188 M434.2365417480469,118.15170288085938 L434.1234130859375,117.86097717285156 L433.92620849609375,117.42581176757812 L433.63348388671875,116.95545196533203 L433.2301025390625,116.62798309326172 L432.66259765625,116.55025482177734 L431.8979797363281,116.8148422241211 L430.96197509765625,117.48184204101562 L429.9444274902344,118.6238021850586 L428.9629211425781,120.24737548828125 L428.1058044433594,122.27774810791016 L427.439453125,124.564453125 L426.9893493652344,126.8851318359375 L426.7937316894531,128.9907989501953 L426.86614990234375,130.70176696777344 L427.20416259765625,131.8986053466797 L427.75347900390625,132.52963256835938 L428.4561462402344,132.57603454589844 L429.24310302734375,132.01185607910156 L430.09613037109375,130.81893920898438 L430.9871520996094,129.0520477294922 L431.9049987792969,126.85184478759766 L432.8081359863281,124.43473815917969 L433.6493225097656,122.04875946044922 L434.3817443847656,119.90951538085938 L435.00408935546875,118.16552734375 L435.50372314453125,116.86931610107422 L435.9117431640625,115.9996566772461 L436.23272705078125,115.5047378540039 L436.4572448730469,115.38370513916016 L436.5518493652344,115.68438720703125 L436.497314453125,116.4825210571289 L436.27935791015625,117.79893493652344 L435.9372253417969,119.55145263671875 L435.5320739746094,121.56808471679688 L435.1424865722656,123.68973541259766 L434.8308410644531,125.76728057861328 L434.63299560546875,127.6749038696289 L434.54986572265625,129.28903198242188 L434.546142578125,130.5065460205078 L434.59033203125,131.2807159423828 L434.6484375,131.64077758789062 L434.7160339355469,131.62118530273438 L434.8019104003906,131.21762084960938 L434.92864990234375,130.38555908203125 L435.1094970703125,129.12423706054688 L435.3804626464844,127.53058624267578 L435.7735290527344,125.75858306884766 L436.3487243652344,123.94075775146484 L437.1383056640625,122.15007019042969 L438.1365661621094,120.4199447631836 L439.2763671875,118.80402374267578 L440.4549560546875,117.3985824584961 L441.5470886230469,116.30232238769531 L442.47186279296875,115.5615463256836 L443.1668701171875,115.1568603515625 L443.6212158203125,115.03690338134766 L443.83685302734375,115.1681137084961 L443.82672119140625,115.55801391601562 L443.59033203125,116.24917602539062 L443.1498718261719,117.26720428466797 L442.5458679199219,118.60037231445312 L441.88140869140625,120.19316864013672 L441.2498779296875,121.95125579833984 L440.7483825683594,123.76136779785156 L440.4151611328125,125.4824447631836 L440.2425231933594,126.94834899902344 L440.187744140625,128.03807067871094 L440.2112731933594,128.7248077392578 L440.25640869140625,129.0607452392578 L440.3111877441406,129.1361541748047 L440.376220703125,128.9646453857422 L440.4614562988281,128.45635986328125 L440.5902099609375,127.51322937011719 L440.8023986816406,126.1431655883789 L441.1295166015625,124.47027587890625 L441.620361328125,122.70301818847656 L442.3087463378906,121.02931213378906 L443.18914794921875,119.56436157226562 L444.2401428222656,118.37874603271484 L445.4010314941406,117.54325103759766 L446.5723571777344,117.12618255615234 L447.6347961425781,117.19832611083984 L448.4669494628906,117.80929565429688 L448.9930114746094,118.94918823242188 L449.2237854003906,120.5341796875 L449.1986999511719,122.40717315673828 L448.9967346191406,124.36463928222656 L448.70233154296875,126.19522857666016 L448.3915100097656,127.73605346679688 L448.13507080078125,128.89202880859375 L447.9886474609375,129.64297485351562 L447.9447937011719,129.98587036132812 L447.9677734375,129.90420532226562 L448.06585693359375,129.34361267089844 L448.2817077636719,128.2666015625 L448.68109130859375,126.72535705566406 L449.3290100097656,124.89997100830078 L450.2341003417969,123.01807403564453 L451.3396301269531,121.30145263671875 L452.5824890136719,119.89256286621094 L453.8650817871094,118.85372924804688 L455.0889892578125,118.22280883789062 L456.15802001953125,118.04126739501953 L456.98614501953125,118.34800720214844 L457.5232849121094,119.18087005615234 L457.7462158203125,120.51726531982422 L457.6695861816406,122.25250244140625 L457.371337890625,124.2115707397461 L456.9465026855469,126.17578125 L456.50823974609375,127.93853759765625 L456.1436462402344,129.37327575683594 L455.910888671875,130.36341857910156 L455.8331298828125,130.86895751953125 L455.919189453125,130.9123077392578 L456.07269287109375,130.7075958251953 L456.2189636230469,130.4554901123047 M466.4537658691406,117.96865844726562 L466.47918701171875,117.6905746459961 L466.4764404296875,117.24588775634766 L466.3953552246094,116.69853210449219 L466.178466796875,116.17100524902344 L465.8074951171875,115.7188720703125 L465.29522705078125,115.40006256103516 L464.689453125,115.2833023071289 L463.99798583984375,115.44847106933594 L463.2418212890625,115.99348449707031 L462.4241943359375,116.9906997680664 L461.579833984375,118.46814727783203 L460.7547607421875,120.36470794677734 L460.0412902832031,122.52413177490234 L459.502685546875,124.6950454711914 L459.2008361816406,126.63131713867188 L459.1368103027344,128.14471435546875 L459.312744140625,129.14859008789062 L459.6971740722656,129.62069702148438 L460.2939147949219,129.5581817626953 L461.08978271484375,128.925048828125 L462.06732177734375,127.70237731933594 L463.1706848144531,125.95194244384766 L464.358642578125,123.85892486572266 L465.54150390625,121.6860122680664 L466.63189697265625,119.7251968383789 L467.51837158203125,118.17887115478516 L468.1394348144531,117.10858154296875 L468.4764709472656,116.49946594238281 L468.5681457519531,116.33616638183594 L468.4478759765625,116.65650177001953 L468.1473083496094,117.55329895019531 L467.6875,119.05902862548828 L467.1420593261719,121.04706573486328 L466.59783935546875,123.29112243652344 L466.142578125,125.53732299804688 L465.83905029296875,127.57906341552734 L465.71990966796875,129.2840576171875 L465.79388427734375,130.563232421875 L466.0804443359375,131.33567810058594 L466.59454345703125,131.53872680664062 L467.3490905761719,131.13412475585938 L468.35186767578125,130.1156005859375 L469.58154296875,128.54037475585938 L470.98895263671875,126.52584838867188 L472.49169921875,124.22659301757812 L473.99786376953125,121.79011535644531 L475.4171447753906,119.32540130615234 L476.6937561035156,116.90515899658203 L477.77264404296875,114.59290313720703 L478.633056640625,112.46015167236328 L479.23846435546875,110.58746337890625 L479.582763671875,109.03956604003906 L479.68365478515625,107.84729766845703 L479.5960998535156,107.02591705322266 L479.34466552734375,106.59579467773438 L478.94757080078125,106.61061096191406 L478.372314453125,107.15629577636719 L477.60888671875,108.30008697509766 L476.70111083984375,110.04053497314453 L475.73681640625,112.29041290283203 L474.81085205078125,114.90587615966797 L474.01153564453125,117.71012115478516 L473.390869140625,120.51815795898438 L472.9947814941406,123.15026092529297 L472.86602783203125,125.44129180908203 L473.0175476074219,127.26632690429688 L473.4248352050781,128.5840301513672 L474.0708923339844,129.3599853515625 L474.8963928222656,129.61386108398438 L475.83111572265625,129.41502380371094 L476.6314697265625,129.0281524658203 L477.1583251953125,128.67166137695312 M494.73870849609375,108.57028198242188 L494.6939697265625,108.44122314453125 L494.56207275390625,108.31925964355469 L494.2740478515625,108.32060241699219 L493.7550964355469,108.59632110595703 L492.9588317871094,109.23667907714844 L491.9107666015625,110.32546997070312 L490.69439697265625,111.92247009277344 L489.4262390136719,114.0630111694336 L488.2220764160156,116.69328308105469 L487.167724609375,119.65921020507812 L486.3445739746094,122.72321319580078 L485.8159484863281,125.6393814086914 L485.6257019042969,128.216064453125 L485.77508544921875,130.35931396484375 L486.22125244140625,132.0455322265625 L486.9035339355469,133.28286743164062 L487.72320556640625,134.09188842773438 L488.5672912597656,134.5196533203125 L489.23846435546875,134.67347717285156 L489.6452941894531,134.68186950683594 M501.15679931640625,112.43011474609375 L501.0968322753906,112.35003662109375 L501.03887939453125,112.28993225097656 L500.97344970703125,112.37129974365234 L500.8682861328125,112.7596664428711 L500.6316223144531,113.57368469238281 L500.23638916015625,114.86261749267578 L499.68572998046875,116.5836181640625 L499.036865234375,118.63841247558594 L498.3277282714844,120.9102783203125 L497.599365234375,123.2812271118164 L496.9018249511719,125.61666107177734 L496.30133056640625,127.73978424072266 L495.8520202636719,129.45973205566406 L495.57879638671875,130.67494201660156 L495.4559631347656,131.3707733154297 L495.4482421875,131.5739288330078 L495.5401611328125,131.28640747070312 L495.76593017578125,130.45567321777344 L496.19635009765625,129.04830932617188 L496.89385986328125,127.19563293457031 L497.8758850097656,125.12940979003906 L499.1055603027344,123.10286712646484 L500.49658203125,121.32462310791016 L501.94952392578125,119.93830108642578 L503.3702392578125,119.03569030761719 L504.6506042480469,118.70565795898438 L505.6959228515625,118.98686981201172 L506.42724609375,119.84342193603516 L506.7898254394531,121.17324829101562 L506.7554626464844,122.83972930908203 L506.34368896484375,124.6806640625 L505.5882568359375,126.54330444335938 L504.5556640625,128.29119873046875 L503.32244873046875,129.8112030029297 L501.96343994140625,131.01080322265625 L500.5603332519531,131.8390655517578 L499.20806884765625,132.27841186523438 L498.0035095214844,132.36135864257812 L497.0314636230469,132.1493682861328 L496.4028625488281,131.65866088867188 L496.1697998046875,130.9212646484375 L496.3346252441406,129.9921875 L496.6787109375,129.14447021484375 L497.0042724609375,128.5608367919922 M510.8264465332031,120.61956024169922 L510.9866943359375,120.52259826660156 L511.1690673828125,120.49665069580078 L511.289306640625,120.70714569091797 L511.2508544921875,121.33568572998047 L511.0450744628906,122.44648742675781 L510.6962585449219,123.9912109375 L510.25909423828125,125.82477569580078 L509.7964782714844,127.76905822753906 L509.3887634277344,129.63082885742188 L509.09478759765625,131.2396240234375 L508.9239501953125,132.49142456054688 L508.8729553222656,133.24005126953125 L508.9112548828125,133.4081573486328 L509.0224304199219,133.01620483398438 L509.1492919921875,132.40225219726562 L509.24945068359375,131.85646057128906 M513.1585083007812,115.47489929199219 L513.161865234375,115.17176055908203 L513.1641235351562,114.80569458007812 L513.165771484375,114.4914321899414 L513.1951293945312,114.3846664428711 L513.2758178710938,114.46627044677734 L513.4236450195312,114.70095825195312 L513.5853881835938,114.95149230957031 L513.710693359375,115.15038299560547 M521.2618408203125,120.15962219238281 L521.3173217773438,119.8773193359375 L521.4122314453125,119.40412902832031 L521.522216796875,118.80670928955078 L521.5910034179688,118.23004150390625 L521.5562744140625,117.75408172607422 L521.36083984375,117.42945098876953 L520.9821166992188,117.27108001708984 L520.40673828125,117.3257064819336 L519.6326293945312,117.65980529785156 L518.6764526367188,118.35442352294922 L517.5733032226562,119.48149108886719 L516.3982543945312,121.081298828125 L515.2689819335938,123.11321258544922 L514.2977905273438,125.43060302734375 L513.579345703125,127.78196716308594 L513.1940307617188,129.87060546875 L513.17626953125,131.44383239746094 L513.5173950195312,132.36849975585938 L514.1878051757812,132.61614990234375 L515.110595703125,132.20762634277344 L516.1956787109375,131.18966674804688 L517.3716430664062,129.6418914794922 L518.57666015625,127.69752502441406 L519.740966796875,125.55001831054688 L520.8217163085938,123.4284896850586 L521.7484741210938,121.5513916015625 L522.4619140625,120.07404327392578 L522.9498291015625,119.05201721191406 L523.2310791015625,118.48067474365234 L523.3074340820312,118.3476333618164 L523.1979370117188,118.68929290771484 L522.9035034179688,119.5976791381836 L522.43798828125,121.10911560058594 L521.8889770507812,123.11595153808594 L521.37255859375,125.39407348632812 L520.9885864257812,127.65931701660156 L520.8170776367188,129.66452026367188 L520.8675537109375,131.2682647705078 L521.098388671875,132.4117889404297 L521.4969482421875,133.04318237304688 L522.0338745117188,133.17738342285156 L522.67138671875,132.8792724609375 L523.2406005859375,132.42344665527344 L523.6263427734375,132.0343780517578 M532.9251708984375,118.42689514160156 L532.765380859375,118.07823944091797 L532.4327392578125,117.59221649169922 L531.8970947265625,117.11761474609375 L531.190185546875,116.86365509033203 L530.363525390625,116.91138458251953 L529.48291015625,117.28266143798828 L528.626220703125,117.94168090820312 L527.909423828125,118.85517883300781 L527.4442749023438,119.96590423583984 L527.3326416015625,121.20191192626953 L527.62353515625,122.51287078857422 L528.2808837890625,123.83132934570312 L529.2001953125,125.1033935546875 L530.24951171875,126.29033660888672 L531.279296875,127.36175537109375 L532.1365966796875,128.29393005371094 L532.6773681640625,129.09170532226562 L532.7886962890625,129.75807189941406 L532.4340209960938,130.31497192382812 L531.6446533203125,130.7745361328125 L530.5222778320312,131.1238555908203 L529.205078125,131.3295440673828 L527.8262329101562,131.37318420410156 L526.5098876953125,131.22894287109375 L525.3861083984375,130.92173767089844 L524.52783203125,130.50424194335938 L523.9910888671875,130.12008666992188 L523.7409057617188,129.85888671875 M547.7474365234375,113.38356018066406 L547.5907592773438,113.08251953125 L547.33837890625,112.65937805175781 L546.9979248046875,112.23292541503906 L546.59814453125,111.98095703125 L546.1109619140625,111.9719467163086 L545.510986328125,112.28520965576172 L544.762939453125,112.98088073730469 L543.8984375,114.14839935302734 L542.9578247070312,115.82485961914062 L542.025634765625,117.95954132080078 L541.2048950195312,120.40597534179688 L540.5914916992188,122.96898651123047 L540.2344970703125,125.4342041015625 L540.18701171875,127.63887023925781 L540.4424438476562,129.4656982421875 L541.0022583007812,130.84329223632812 L541.8369140625,131.7183380126953 L542.8984375,132.0568389892578 L544.1129150390625,131.8490753173828 L545.4241333007812,131.13137817382812 L546.7471923828125,129.95602416992188 L548.03662109375,128.39834594726562 L549.2267456054688,126.54744720458984 L550.2437744140625,124.49906158447266 L551.01416015625,122.36287689208984 L551.49072265625,120.25292205810547 L551.6322021484375,118.25016021728516 L551.4383544921875,116.41163635253906 L550.9278564453125,114.79391479492188 L550.126953125,113.44633483886719 L549.0869750976562,112.41705322265625 L547.8927001953125,111.75316619873047 L546.6714477539062,111.45550537109375 L545.5668334960938,111.47405242919922 L544.7741088867188,111.64384460449219 L544.34033203125,111.82168579101562 M555.8739624023438,129.9990692138672 L555.8811645507812,130.08558654785156 L555.8892822265625,130.2025146484375 L555.8955078125,130.3104705810547 L555.8968505859375,130.3700714111328 M562.7783813476562,112.23075866699219 L562.9005126953125,112.18856048583984 L563.284912109375,112.14517974853516 L564.0452880859375,112.11336517333984 L565.2100219726562,112.095458984375 L566.7279052734375,112.06753540039062 L568.4585571289062,112.003173828125 L570.2520751953125,111.89964294433594 L572.015625,111.77946472167969 L573.6346435546875,111.66578674316406 L575.00537109375,111.57689666748047 L576.0643310546875,111.5173110961914 L576.7591552734375,111.4819107055664 L577.1256103515625,111.47370910644531 L577.2484741210938,111.50105285644531 L577.1873779296875,111.58588409423828 L576.9888305664062,111.77037811279297 L576.6763916015625,112.09886169433594 L576.277099609375,112.65033721923828 L575.8319091796875,113.48815155029297 L575.348388671875,114.63997650146484 L574.82421875,116.09060668945312 L574.2548828125,117.78458404541016 L573.6224365234375,119.64691925048828 L572.9307250976562,121.65370178222656 L572.1744384765625,123.76963806152344 L571.36279296875,125.95343017578125 L570.5485229492188,128.134521484375 L569.8089599609375,130.19259643554688 L569.216552734375,131.96939086914062 L568.815673828125,133.3566131591797 L568.5970458984375,134.2408447265625 L568.5107421875,134.6708984375 M566.671630859375,122.98860931396484 L566.8953857421875,123.00115966796875 L567.42919921875,123.00740051269531 L568.3256225585938,122.98530578613281 L569.5809326171875,122.88322448730469 L571.0819702148438,122.67100524902344 L572.6898803710938,122.35291290283203 L574.014404296875,122.03861999511719 L574.8592529296875,121.8117904663086 M586.8194580078125,113.37937927246094 L586.7098388671875,113.31854248046875 L586.5047607421875,113.25167083740234 L586.19189453125,113.23733520507812 L585.779541015625,113.36546325683594 L585.24072265625,113.70159149169922 L584.566650390625,114.31757354736328 L583.77490234375,115.23744201660156 L582.9126586914062,116.45417022705078 L582.054443359375,117.90254211425781 L581.28857421875,119.47319793701172 L580.6834716796875,121.02731323242188 L580.3003540039062,122.44644927978516 L580.1912841796875,123.64057159423828 L580.394287109375,124.56120300292969 L580.9279174804688,125.17395782470703 L581.789306640625,125.47466278076172 L582.9300537109375,125.49266052246094 L584.276123046875,125.31001281738281 L585.729248046875,125.06311798095703 L587.1724853515625,124.88733673095703 L588.4658203125,124.88152313232422 L589.491943359375,125.10558319091797 L590.13623046875,125.556396484375 L590.3370361328125,126.22012329101562 L590.0728759765625,127.08409118652344 L589.33984375,128.10342407226562 L588.150146484375,129.22552490234375 L586.5631713867188,130.38087463378906 L584.6688232421875,131.4524688720703 L582.6226196289062,132.33798217773438 L580.6052856445312,132.96714782714844 L578.779296875,133.192626953125 L577.2825927734375,132.94969177246094 L576.183349609375,132.25938415527344 L575.5145263671875,131.4594268798828 L575.2044067382812,130.82887268066406 M579.959228515625,112.23639678955078 L580.205322265625,112.20693969726562 L580.7669677734375,112.12844848632812 L581.7023315429688,111.99734497070312 L583.0220336914062,111.81271362304688 L584.6343994140625,111.5831069946289 L586.3846435546875,111.3253402709961 L587.8369140625,111.10472869873047 L588.763916015625,110.9541244506836 M595.552734375,105.0 L595.76318359375,105.15052795410156 L596.1748046875,105.57904052734375 L596.7743530273438,106.4080581665039 L597.4729614257812,107.6756362915039 L598.1904296875,109.34904479980469 L598.863037109375,111.37830352783203 L599.4542236328125,113.69229888916016 L599.882080078125,116.28005981445312 L599.9990234375,119.1720199584961 L599.6295166015625,122.37934112548828 L598.617431640625,125.84617614746094 L596.9498901367188,129.44680786132812 L594.8062744140625,132.91188049316406 L592.4515991210938,136.007568359375 L590.1892700195312,138.5859375 L588.26171875,140.5289764404297 L586.784912109375,141.78575134277344 L585.78564453125,142.40577697753906 L585.234375,142.56350708007812 L585.002197265625,142.49192810058594 " fill="none" stroke="black" stroke-linecap="round" stroke-width="2" /><path d="M0,0 M439.4091491699219,167.91403198242188 M439.2584228515625,168.6573486328125 L439.2651672363281,169.2578887939453 L439.26690673828125,170.39288330078125 L439.2608947753906,172.0623779296875 L439.243896484375,174.08370971679688 L439.22552490234375,176.3482666015625 L439.2055358886719,178.72366333007812 L439.1726989746094,181.1145782470703 L439.1468811035156,183.4188690185547 L439.1497802734375,185.5248260498047 L439.18304443359375,187.31971740722656 L439.2471618652344,188.65499877929688 L439.32354736328125,189.42628479003906 L439.390380859375,189.6230010986328 L439.4385986328125,189.47605895996094 L439.46978759765625,189.22900390625 M441.8477783203125,166.68191528320312 L441.8948974609375,166.67767333984375 L442.00146484375,166.82119750976562 L442.16778564453125,167.2606201171875 L442.36968994140625,168.12660217285156 L442.58624267578125,169.43675231933594 L442.78533935546875,171.15557861328125 L442.95819091796875,173.1980743408203 L443.11883544921875,175.4683380126953 L443.2818603515625,177.8516387939453 L443.4791564941406,180.24095153808594 L443.73504638671875,182.50440979003906 L444.04266357421875,184.5361328125 L444.3750915527344,186.2371826171875 L444.686279296875,187.53372192382812 L444.9307556152344,188.408203125 L445.0907287597656,188.91648864746094 L445.1654357910156,189.10189819335938 L445.1756896972656,188.95762634277344 L445.1590576171875,188.39239501953125 L445.17156982421875,187.27630615234375 L445.26934814453125,185.57479858398438 L445.4915771484375,183.3756866455078 L445.8670959472656,180.8459930419922 L446.3976745605469,178.1685028076172 L447.06396484375,175.49644470214844 L447.8395690917969,172.94749450683594 L448.6702880859375,170.64418029785156 L449.4794921875,168.69769287109375 L450.1962585449219,167.18759155273438 L450.7583312988281,166.14816284179688 L451.13116455078125,165.58851623535156 L451.298583984375,165.55496215820312 L451.2791748046875,166.04156494140625 L451.1164855957031,166.9738006591797 L450.9197998046875,167.94741821289062 L450.7694396972656,168.6629638671875 M449.4342956542969,183.7056427001953 L449.7528991699219,183.4296875 L450.33978271484375,182.8257598876953 L451.18017578125,181.84661865234375 L452.1620788574219,180.56356811523438 L453.20416259765625,179.08909606933594 L454.1916198730469,177.5780792236328 L455.0371398925781,176.18370056152344 L455.6654052734375,175.0173797607422 L456.0262756347656,174.14202880859375 L456.0950012207031,173.57528686523438 L455.8357849121094,173.31283569335938 L455.2243957519531,173.3981475830078 L454.27734375,173.9304656982422 L453.068359375,175.00607299804688 L451.7303466796875,176.64852905273438 L450.444091796875,178.77182006835938 L449.3743591308594,181.17034912109375 L448.6622619628906,183.5886688232422 L448.4007263183594,185.78659057617188 L448.6266174316406,187.58860778808594 L449.32415771484375,188.88137817382812 L450.4406433105469,189.6089324951172 L451.88232421875,189.76071166992188 L453.5856628417969,189.26632690429688 L455.42694091796875,188.16290283203125 L457.2565002441406,186.60096740722656 L458.697265625,185.12838745117188 L459.5768127441406,184.10818481445312 M464.48760986328125,174.81863403320312 L464.45758056640625,174.54290771484375 L464.35430908203125,174.20217895507812 L464.1136474609375,173.9334259033203 L463.6826477050781,173.9280242919922 L463.0224609375,174.2610321044922 L462.1363830566406,174.98495483398438 L461.0896911621094,176.14324951171875 L459.986572265625,177.75607299804688 L458.9488525390625,179.74929809570312 L458.1230163574219,181.94110107421875 L457.610595703125,184.0728759765625 L457.450927734375,185.874267578125 L457.6366882324219,187.16958618164062 L458.1171875,187.89051818847656 L458.82208251953125,188.04458618164062 L459.713134765625,187.6311798095703 L460.73724365234375,186.6471710205078 L461.8337097167969,185.11949157714844 L462.9328918457031,183.1708526611328 L463.9665832519531,181.0237579345703 L464.8730773925781,178.94766235351562 L465.619873046875,177.16673278808594 L466.18109130859375,175.79205322265625 L466.55487060546875,174.83566284179688 L466.7382507324219,174.29257202148438 L466.7530212402344,174.20083618164062 L466.61383056640625,174.64859008789062 L466.3399963378906,175.72186279296875 L465.9742736816406,177.3651123046875 L465.5845031738281,179.38790893554688 L465.245849609375,181.54580688476562 L465.0405578613281,183.60269165039062 L465.0060119628906,185.38706970214844 L465.1168518066406,186.8217010498047 L465.3353576660156,187.8079376220703 L465.6043395996094,188.29995727539062 L465.8856201171875,188.3286895751953 L466.11279296875,188.111083984375 L466.25933837890625,187.8527069091797 M473.48968505859375,167.21530151367188 L473.5157775878906,167.21009826660156 L473.531494140625,167.38912963867188 L473.4995422363281,167.932861328125 L473.3663330078125,168.98880004882812 L473.10968017578125,170.56228637695312 L472.7381591796875,172.56179809570312 L472.2864685058594,174.84866333007812 L471.82513427734375,177.27854919433594 L471.4219665527344,179.72311401367188 L471.1083679199219,182.0410919189453 L470.8996887207031,184.08206176757812 L470.77685546875,185.65182495117188 L470.704833984375,186.6087646484375 L470.66259765625,186.92735290527344 L470.63897705078125,186.84622192382812 L470.62359619140625,186.62429809570312 M469.471923828125,175.35357666015625 L469.546630859375,175.3242645263672 L469.78857421875,175.25021362304688 L470.27581787109375,175.10609436035156 L471.0707702636719,174.86215209960938 L472.12103271484375,174.515869140625 L473.2989196777344,174.09568786621094 L474.2846984863281,173.72557067871094 L474.9096984863281,173.48153686523438 M490.4213562011719,168.14572143554688 L490.2939758300781,168.00552368164062 L490.0595703125,167.8549041748047 L489.69769287109375,167.81124877929688 L489.1799621582031,168.0299530029297 L488.45166015625,168.61927795410156 L487.4979248046875,169.67784118652344 L486.36590576171875,171.2736053466797 L485.1590270996094,173.4344024658203 L484.02203369140625,176.1042938232422 L483.06988525390625,179.12384033203125 L482.4014892578125,182.27041625976562 L482.07220458984375,185.30245971679688 L482.0997314453125,188.01084899902344 L482.4630126953125,190.2499237060547 L483.1123352050781,191.95889282226562 L484.0173034667969,193.0680389404297 L485.1170654296875,193.56138610839844 L486.3197937011719,193.4842529296875 L487.32867431640625,193.12806701660156 L487.9808044433594,192.75343322753906 M496.2122802734375,170.52767944335938 L496.1829833984375,170.5515594482422 L496.0924072265625,170.777587890625 L495.9140625,171.38307189941406 L495.6446533203125,172.5055389404297 L495.29791259765625,174.15994262695312 L494.8979797363281,176.26475524902344 L494.4846496582031,178.6868438720703 L494.08538818359375,181.2317657470703 L493.7312316894531,183.65191650390625 L493.4592590332031,185.6969451904297 L493.2735595703125,187.20086669921875 L493.166015625,188.1063690185547 L493.1346435546875,188.44300842285156 L493.1623840332031,188.2102813720703 L493.2796325683594,187.34788513183594 L493.5638427734375,185.83245849609375 L494.08502197265625,183.8165740966797 L494.89251708984375,181.61248779296875 L495.97576904296875,179.5745086669922 L497.25177001953125,177.9627685546875 L498.61370849609375,176.8978271484375 L499.95269775390625,176.41346740722656 L501.159423828125,176.52923583984375 L502.1422119140625,177.2402801513672 L502.81170654296875,178.48184204101562 L503.10125732421875,180.114013671875 L502.9808349609375,181.9464569091797 L502.4656982421875,183.78697204589844 L501.608154296875,185.47189331054688 L500.49945068359375,186.87754821777344 L499.2475891113281,187.9301300048828 L497.9747314453125,188.593994140625 L496.7923583984375,188.86659240722656 L495.7960510253906,188.7735137939453 L495.05084228515625,188.36109924316406 L494.6570129394531,187.634765625 L494.6674499511719,186.64907836914062 L495.0802307128906,185.49815368652344 L495.6270751953125,184.49887084960938 L496.08209228515625,183.8408660888672 M506.20050048828125,176.4318389892578 L506.2407531738281,176.44464111328125 L506.2869567871094,176.64988708496094 L506.3138122558594,177.21682739257812 L506.2827453613281,178.2739715576172 L506.17633056640625,179.79664611816406 L505.99029541015625,181.66912841796875 L505.7397155761719,183.71487426757812 L505.4690246582031,185.72193908691406 L505.23516845703125,187.48167419433594 L505.0830993652344,188.84193420410156 L505.01593017578125,189.68923950195312 L505.0058288574219,190.0820770263672 M507.7142333984375,172.3976593017578 L507.7406005859375,172.33251953125 L507.78045654296875,172.25550842285156 L507.8197937011719,172.19125366210938 L507.8445129394531,172.16433715820312 M516.4105224609375,176.58834838867188 L516.4559936523438,176.35256958007812 L516.5050048828125,175.9492645263672 L516.5128173828125,175.44029235839844 L516.398193359375,174.95803833007812 L516.0999755859375,174.60125732421875 L515.5807495117188,174.4635467529297 L514.8391723632812,174.6178436279297 L513.8986206054688,175.15867614746094 L512.8102416992188,176.1642303466797 L511.63385009765625,177.66343688964844 L510.4603271484375,179.5895233154297 L509.4190979003906,181.76300048828125 L508.6430358886719,183.9087371826172 L508.2091369628906,185.75421142578125 L508.1511535644531,187.0829315185547 L508.46112060546875,187.78900146484375 L509.09906005859375,187.8414306640625 L510.03082275390625,187.2393035888672 L511.2070617675781,186.01068115234375 L512.5343017578125,184.26417541503906 L513.9163818359375,182.20095825195312 L515.2603149414062,180.09976196289062 L516.4581298828125,178.23849487304688 L517.4156494140625,176.77793884277344 L518.0775146484375,175.78903198242188 L518.4091186523438,175.3085174560547 L518.428466796875,175.40054321289062 L518.185546875,176.1538848876953 L517.73095703125,177.6136474609375 L517.14404296875,179.649658203125 L516.5445556640625,181.9962615966797 L516.061767578125,184.32240295410156 L515.7965087890625,186.32705688476562 L515.7774658203125,187.82887268066406 L515.891357421875,188.74911499023438 L516.0240478515625,189.1746063232422 M525.541259765625,174.49755859375 L525.4556274414062,174.2118377685547 L525.2225341796875,173.83575439453125 L524.7779541015625,173.51251220703125 L524.1165771484375,173.4432373046875 L523.2952270507812,173.7135772705078 L522.4187622070312,174.35414123535156 L521.6392822265625,175.3280792236328 L521.1151733398438,176.5693817138672 L520.9652099609375,177.9776153564453 L521.2442626953125,179.45082092285156 L521.8952026367188,180.91522216796875 L522.771484375,182.32736206054688 L523.6856689453125,183.65969848632812 L524.4645385742188,184.8799285888672 L524.9820556640625,185.95648193359375 L525.177001953125,186.85797119140625 L525.0346069335938,187.56703186035156 L524.57470703125,188.0906219482422 L523.8331298828125,188.45193481445312 L522.8765869140625,188.6455535888672 L521.8123779296875,188.67556762695312 L520.7766723632812,188.55564880371094 L519.9912109375,188.3801727294922 L519.538818359375,188.2296142578125 M536.906982421875,181.6749725341797 L537.2900390625,181.14706420898438 L538.0151977539062,180.1586456298828 L539.0687255859375,178.73583984375 L540.3159790039062,177.06858825683594 L541.6619262695312,175.2960662841797 L543.0086669921875,173.568603515625 L544.28173828125,172.0041961669922 L545.4019165039062,170.70867919921875 L546.3036499023438,169.73876953125 L546.9439697265625,169.0982666015625 L547.3115844726562,168.77157592773438 L547.426513671875,168.7799072265625 L547.322998046875,169.20338439941406 L547.0061645507812,170.1645965576172 L546.500732421875,171.733154296875 L545.8440551757812,173.8671417236328 L545.0853271484375,176.4140625 L544.2982177734375,179.1653289794922 L543.5624389648438,181.9104461669922 L542.937744140625,184.49000549316406 L542.479248046875,186.78770446777344 L542.210205078125,188.70091247558594 L542.0987548828125,190.17166137695312 L542.1094970703125,191.14627075195312 L542.199951171875,191.6234130859375 L542.3450927734375,191.67144775390625 L542.4891967773438,191.5052947998047 L542.5987548828125,191.30206298828125 M550.060791015625,186.5120391845703 L550.0956420898438,186.53128051757812 L550.139892578125,186.55441284179688 L550.1746215820312,186.57749938964844 L550.18603515625,186.58802795410156 L550.1842651367188,186.5891876220703 L550.17578125,186.57754516601562 L550.1678466796875,186.57070922851562 L550.180908203125,186.55697631835938 L550.23193359375,186.52671813964844 L550.3357543945312,186.45159912109375 L550.455322265625,186.36082458496094 L550.551513671875,186.2768096923828 M561.6151123046875,172.83279418945312 L561.5448608398438,172.5909423828125 L561.4031982421875,172.26760864257812 L561.1649169921875,171.97943115234375 L560.7972412109375,171.8917236328125 L560.263427734375,172.08651733398438 L559.5470581054688,172.62506103515625 L558.6817016601562,173.5417938232422 L557.73095703125,174.8547821044922 L556.7857666015625,176.52330017089844 L555.9263916015625,178.44869995117188 L555.248291015625,180.49148559570312 L554.8308715820312,182.48159790039062 L554.7431030273438,184.25157165527344 L555.0098876953125,185.6543731689453 L555.6235961914062,186.58384704589844 L556.5318603515625,186.99481201171875 L557.6839599609375,186.88526916503906 L558.9934692382812,186.28228759765625 L560.3649291992188,185.24314880371094 L561.6930541992188,183.84228515625 L562.8801879882812,182.17715454101562 L563.8513793945312,180.36012268066406 L564.5794677734375,178.49969482421875 L565.0400390625,176.6880340576172 L565.2223510742188,175.00146484375 L565.1268310546875,173.4920196533203 L564.771240234375,172.1950225830078 L564.17529296875,171.14889526367188 L563.4110107421875,170.392578125 L562.5697021484375,169.94287109375 L561.8695068359375,169.74618530273438 L561.426025390625,169.70936584472656 M569.5596923828125,165.07379150390625 L569.742431640625,165.0 L570.1549072265625,165.01348876953125 L570.824462890625,165.25035095214844 L571.680908203125,165.84005737304688 L572.6065063476562,166.8146514892578 L573.47998046875,168.1612091064453 L574.2029418945312,169.8174591064453 L574.7255249023438,171.73728942871094 L575.0120849609375,173.8704071044922 L575.0266723632812,176.1772003173828 L574.7320556640625,178.6199493408203 L574.099853515625,181.14926147460938 L573.1363525390625,183.66741943359375 L571.9066162109375,186.07940673828125 L570.522705078125,188.28773498535156 L569.072265625,190.20321655273438 L567.6600952148438,191.7398223876953 L566.3760986328125,192.8546142578125 L565.4202270507812,193.5156707763672 L564.8605346679688,193.80947875976562 " fill="none" stroke="black" stroke-linecap="round" stroke-width="2" /></svg>