<?xml version="1.0" encoding="utf-8" ?>
<svg baseProfile="full" height="100%" version="1.1" viewBox="0,0,1000,180" width="100%" xmlns="http://www.w3.org/2000/svg" xmlns:ev="http://www.w3.org/2001/xml-events" xmlns:xlink="http://www.w3.org/1999/xlink"><defs /><rect fill="white" height="180" width="1000" x="0" y="0" /><path d="M0,0 M452.19342041015625,45.30134582519531 L452.18341064453125,45.278564453125 L452.1598815917969,45.45332717895508 L452.1169128417969,46.05529022216797 L452.0310363769531,47.29780197143555 L451.865478515625,49.23270034790039 L451.59051513671875,51.770294189453125 L451.2068176269531,54.71835708618164 L450.7528076171875,57.842994689941406 L450.2832946777344,60.93659973144531 L449.84375,63.8405876159668 L449.4464111328125,66.42111206054688 L449.11572265625,68.51023864746094 L448.8728332519531,69.96540069580078 L448.7392883300781,70.72418212890625 L448.69427490234375,70.95095825195312 L448.7041320800781,70.89673614501953 M458.23016357421875,47.9832649230957 L458.2832336425781,47.94672393798828 L458.323486328125,48.09332275390625 L458.3125305175781,48.620208740234375 L458.2007141113281,49.702232360839844 L457.9816589355469,51.35328674316406 L457.6640930175781,53.48345947265625 L457.28564453125,55.9495964050293 L456.8825988769531,58.59601974487305 L456.505126953125,61.24821853637695 L456.1807861328125,63.740028381347656 L455.9210510253906,65.91010284423828 L455.6856384277344,67.5758056640625 L455.4362487792969,68.62958526611328 L455.1366882324219,69.06780242919922 L454.85693359375,69.0935287475586 L454.6533203125,68.9473648071289 M449.55462646484375,60.45618438720703 L449.6477355957031,60.386898040771484 L449.9785461425781,60.255924224853516 L450.6691589355469,60.053462982177734 L451.74835205078125,59.78862762451172 L453.1485595703125,59.456443786621094 L454.7519836425781,59.05921173095703 L456.4371337890625,58.596771240234375 L458.1363220214844,58.07909393310547 L459.80511474609375,57.501495361328125 L461.3970642089844,56.86425018310547 L462.8645324707031,56.14569854736328 L464.1361999511719,55.33573532104492 L465.1394348144531,54.45491027832031 L465.8258361816406,53.56698989868164 L466.1570739746094,52.75835418701172 L466.114013671875,52.14396667480469 L465.6844482421875,51.82089614868164 L464.8755187988281,51.87260055541992 L463.7530517578125,52.37876510620117 L462.45159912109375,53.404327392578125 L461.13201904296875,54.951656341552734 L459.9630126953125,56.954349517822266 L459.0787658691406,59.265411376953125 L458.5649108886719,61.65291213989258 L458.46630859375,63.868099212646484 L458.7845458984375,65.70370483398438 L459.461669921875,67.01403045654297 L460.42181396484375,67.73104858398438 L461.5957946777344,67.85723114013672 L462.9299011230469,67.40779113769531 L464.37164306640625,66.41143035888672 L465.8680725097656,64.91307067871094 L467.3664855957031,62.980289459228516 L468.8130187988281,60.70425033569336 L470.1936950683594,58.20479965209961 L471.4906921386719,55.619075775146484 L472.6632385253906,53.1003532409668 L473.653564453125,50.82395553588867 L474.4285583496094,48.947776794433594 L474.9466552734375,47.57145690917969 L475.209716796875,46.74253845214844 L475.201416015625,46.471622467041016 L474.9158935546875,46.76708984375 L474.3409729003906,47.68929672241211 L473.5324401855469,49.276607513427734 L472.5692443847656,51.48564147949219 L471.56866455078125,54.18523406982422 L470.6409606933594,57.15486145019531 L469.9039306640625,60.12846374511719 L469.4347229003906,62.87173843383789 L469.3039855957031,65.1834716796875 L469.5345458984375,66.92142486572266 L470.1180419921875,67.9932861328125 L471.0159912109375,68.36731719970703 L472.1850280761719,68.05017852783203 L473.5658874511719,67.08241271972656 L475.0785827636719,65.54197692871094 L476.63433837890625,63.55009841918945 L478.14501953125,61.224449157714844 L479.5417785644531,58.71141052246094 L480.78253173828125,56.14570617675781 L481.834228515625,53.6513671875 L482.64801025390625,51.37129211425781 L483.2047424316406,49.43579864501953 L483.4949951171875,47.91835021972656 L483.54595947265625,46.861289978027344 L483.3788757324219,46.27579879760742 L482.9952697753906,46.191280364990234 L482.38385009765625,46.69757843017578 L481.5531005859375,47.871437072753906 L480.5498046875,49.70726776123047 L479.48248291015625,52.09140396118164 L478.4646301269531,54.818565368652344 L477.60791015625,57.64525604248047 L477.0014343261719,60.3577995300293 L476.6881408691406,62.77947235107422 L476.6923522949219,64.788818359375 L477.0123596191406,66.31523132324219 L477.606689453125,67.33546447753906 L478.48992919921875,67.77914428710938 L479.61822509765625,67.63945770263672 L480.918212890625,66.98228454589844 L482.04962158203125,66.18997955322266 L482.8039245605469,65.56480407714844 M488.8193054199219,56.13779067993164 L488.7249450683594,55.8165397644043 L488.53033447265625,55.39389419555664 L488.18865966796875,55.033042907714844 L487.661865234375,54.970909118652344 L486.9049987792969,55.33561706542969 L485.94403076171875,56.22555160522461 L484.8659973144531,57.646541595458984 L483.8282470703125,59.53102111816406 L482.9937744140625,61.671669006347656 L482.4759216308594,63.76246643066406 L482.3150634765625,65.5121078491211 L482.50250244140625,66.72797393798828 L482.9675598144531,67.33140563964844 L483.6454772949219,67.33721923828125 L484.4815368652344,66.76690673828125 L485.4143371582031,65.64624786376953 L486.3670654296875,64.0453109741211 L487.2746276855469,62.136024475097656 L488.083740234375,60.1656494140625 L488.77923583984375,58.38861846923828 L489.3996276855469,56.970211029052734 L490.0106506347656,55.971858978271484 L490.6458435058594,55.348899841308594 L491.3624267578125,55.01905059814453 L492.1692810058594,54.886165618896484 L493.0172119140625,54.854583740234375 L493.7161560058594,54.858909606933594 L494.16558837890625,54.86800003051758 M495.4486389160156,63.188148498535156 L495.4957275390625,63.19886779785156 L495.5716552734375,63.39485549926758 L495.6549072265625,63.93986892700195 L495.6866455078125,64.95750427246094 L495.61199951171875,66.42765045166016 L495.390380859375,68.23930358886719 L495.0128479003906,70.23002624511719 L494.52484130859375,72.23442077636719 L494.0013427734375,74.07207489013672 L493.51629638671875,75.59745788574219 L493.1648254394531,76.62727355957031 L492.96917724609375,77.16043090820312 M505.7693786621094,56.10679626464844 L505.9083251953125,55.81685256958008 L506.08868408203125,55.432029724121094 L506.26153564453125,55.13729476928711 L506.3323669433594,55.20634460449219 L506.27191162109375,55.81327819824219 L506.0526123046875,57.068382263183594 L505.68829345703125,58.907508850097656 L505.2362060546875,61.13975524902344 L504.8085632324219,63.46214294433594 L504.4898681640625,65.541015625 L504.3267822265625,67.15721893310547 L504.3209228515625,68.21221160888672 L504.44329833984375,68.67063903808594 L504.6936950683594,68.53349304199219 L505.08709716796875,67.77374267578125 L505.6419982910156,66.39866638183594 L506.3427734375,64.56768798828125 L507.15313720703125,62.56538009643555 L507.978271484375,60.71289825439453 L508.73681640625,59.25739288330078 L509.338623046875,58.31013107299805 L509.7448425292969,57.891685485839844 L509.94744873046875,58.02477264404297 L509.9866027832031,58.76081085205078 L509.8984375,60.094749450683594 L509.78253173828125,61.88231658935547 L509.726806640625,63.84515380859375 L509.8129577636719,65.65287780761719 L510.0823974609375,67.05883026123047 L510.5066833496094,67.96851348876953 L511.0124206542969,68.37525177001953 L511.560791015625,68.28827667236328 L512.1439819335938,67.68566131591797 L512.7733154296875,66.55448913574219 L513.4644165039062,64.9778060913086 L514.1795654296875,63.13970184326172 L514.8648681640625,61.25466537475586 L515.4593505859375,59.496395111083984 L515.9371337890625,57.95427322387695 L516.3062744140625,56.66962814331055 L516.6015014648438,55.67924499511719 L516.8553466796875,55.01418685913086 L517.0521240234375,54.65774917602539 L517.176025390625,54.52853012084961 M524.182861328125,56.67213821411133 L523.99267578125,56.37269973754883 L523.6080322265625,55.96070098876953 L522.9956665039062,55.593727111816406 L522.1707763671875,55.526268005371094 L521.1533203125,55.91739273071289 L519.9998779296875,56.88471984863281 L518.8287963867188,58.432647705078125 L517.7905883789062,60.44529724121094 L517.0435180664062,62.6728515625 L516.6864013671875,64.79669189453125 L516.7400512695312,66.53071594238281 L517.1452026367188,67.717041015625 L517.812255859375,68.29618072509766 L518.6390991210938,68.26121520996094 L519.5621337890625,67.616455078125 L520.5179443359375,66.37484741210938 L521.4586181640625,64.6319580078125 L522.3505859375,62.59424591064453 L523.1719970703125,60.52647399902344 L523.8984985351562,58.694297790527344 L524.531494140625,57.27488708496094 L525.0603637695312,56.31145095825195 L525.4940185546875,55.81082534790039 L525.8495483398438,55.77268600463867 L526.132568359375,56.23499298095703 L526.3161010742188,57.247467041015625 L526.3682250976562,58.785823822021484 L526.2630615234375,60.68587875366211 L526.031005859375,62.7017936706543 L525.7453002929688,64.53612518310547 L525.4932861328125,65.9863052368164 L525.3297729492188,66.953125 L525.2775268554688,67.39462280273438 L525.3289184570312,67.27001190185547 L525.4921875,66.52198791503906 L525.791748046875,65.13162231445312 L526.2647705078125,63.27952194213867 L526.9115600585938,61.290245056152344 L527.7139892578125,59.50597381591797 L528.633544921875,58.140716552734375 L529.6548461914062,57.204742431640625 L530.7611694335938,56.55437088012695 L531.9620971679688,56.035308837890625 L533.227294921875,55.51336669921875 L534.5110473632812,54.91355514526367 L535.7662353515625,54.19654846191406 L536.9486083984375,53.33317565917969 L537.9945068359375,52.32341384887695 L538.853515625,51.22840881347656 L539.475341796875,50.14041519165039 L539.8251953125,49.20079040527344 L539.8934936523438,48.564579010009766 L539.662109375,48.361419677734375 L539.1193237304688,48.72169494628906 L538.264404296875,49.76160430908203 L537.1775512695312,51.505088806152344 L536.0045776367188,53.85613250732422 L534.93896484375,56.58412170410156 L534.13623046875,59.37089157104492 L533.710205078125,61.9194450378418 L533.701416015625,64.02027893066406 L534.1087646484375,65.5500717163086 L534.903564453125,66.47284698486328 L536.088623046875,66.73164367675781 L537.5613403320312,66.3492660522461 L539.1825561523438,65.44583129882812 L540.5407104492188,64.46796417236328 L541.4039306640625,63.73800277709961 M547.1148681640625,59.256290435791016 L547.0625610351562,58.99736022949219 L546.9605102539062,58.5958366394043 L546.7715454101562,58.122047424316406 L546.4607543945312,57.69670867919922 L545.97119140625,57.36817169189453 L545.2825927734375,57.20896530151367 L544.4158935546875,57.30994415283203 L543.3865356445312,57.786529541015625 L542.2386474609375,58.7163200378418 L541.0646362304688,60.07183074951172 L539.9904174804688,61.705074310302734 L539.1599731445312,63.39566421508789 L538.7100830078125,64.90727233886719 L538.6791381835938,66.06520080566406 L539.0556640625,66.76432800292969 L539.7811279296875,66.95175170898438 L540.791259765625,66.59576416015625 L542.015380859375,65.6819076538086 L543.393310546875,64.21882629394531 L544.845458984375,62.27470016479492 L546.298095703125,59.97516632080078 L547.6630249023438,57.510093688964844 L548.8846435546875,55.109188079833984 L549.8990478515625,53.003292083740234 L550.6658325195312,51.356563568115234 L551.1907348632812,50.2178955078125 L551.489013671875,49.55817413330078 L551.5670166015625,49.35669708251953 L551.424072265625,49.65924072265625 L551.0187377929688,50.57656478881836 L550.3491821289062,52.19233322143555 L549.5084228515625,54.41927719116211 L548.6303100585938,57.02103042602539 L547.86376953125,59.69585418701172 L547.3283081054688,62.16952133178711 L547.0615844726562,64.2615966796875 L547.0590209960938,65.92204284667969 L547.3040771484375,67.14276123046875 L547.7664794921875,67.93656158447266 L548.4161376953125,68.32693481445312 L549.2344360351562,68.33627319335938 L550.1942749023438,67.98302459716797 L551.2565307617188,67.31956481933594 L552.3671875,66.41452026367188 L553.4605102539062,65.34022521972656 L554.4725341796875,64.19005584716797 L555.3685302734375,63.06981658935547 L556.14111328125,62.0876350402832 L556.7885131835938,61.315757751464844 L557.2493896484375,60.8229866027832 L557.5137939453125,60.579681396484375 M563.744140625,45.11015701293945 L563.7739868164062,45.077335357666016 L563.8102416992188,45.02737045288086 L563.8302001953125,45.0 L563.7958984375,45.0736198425293 L563.6693115234375,45.334503173828125 L563.4267578125,45.86185836791992 L563.06298828125,46.691009521484375 L562.5862426757812,47.81541061401367 L562.0194702148438,49.20084762573242 L561.3978271484375,50.78843688964844 L560.7609252929688,52.47354507446289 L560.1474609375,54.20013427734375 L559.6065063476562,55.87801742553711 L559.1793823242188,57.41725540161133 L558.9008178710938,58.57520294189453 L558.7619018554688,59.26619338989258 M556.9022827148438,70.34121704101562 L556.915771484375,70.30024719238281 L556.9458618164062,70.2059097290039 L556.981689453125,70.06832885742188 L557.0078125,69.92823028564453 L557.0167236328125,69.85499572753906 L556.98095703125,69.82169342041016 L556.9273681640625,69.82554626464844 L556.8814697265625,69.83390808105469 " fill="none" stroke="black" stroke-linecap="round" stroke-width="2" /><path d="M0,0 M381.33038330078125,111.07367706298828 L381.28594970703125,111.58367156982422 L381.1984558105469,112.6574935913086 L381.04986572265625,114.36714172363281 L380.8282165527344,116.60309600830078 L380.5467834472656,119.2354507446289 L380.2198486328125,122.07734680175781 L379.89337158203125,124.93879699707031 L379.6212463378906,127.60127258300781 L379.4312438964844,129.83265686035156 L379.32684326171875,131.47377014160156 L379.29278564453125,132.45472717285156 L379.29205322265625,132.8879852294922 M374.8367919921875,110.30839538574219 L375.1083068847656,110.15039825439453 L375.7527160644531,109.8424072265625 L376.8636169433594,109.38856506347656 L378.39605712890625,108.8467788696289 L380.21685791015625,108.27732849121094 L382.14947509765625,107.73502349853516 L384.05474853515625,107.2681655883789 L385.8639831542969,106.89584350585938 L387.520751953125,106.6199951171875 L388.966064453125,106.41876220703125 L390.01068115234375,106.28971862792969 L390.6025085449219,106.21696472167969 M392.13525390625,106.04009246826172 L392.12091064453125,106.15768432617188 L392.0806579589844,106.51812744140625 L391.9986572265625,107.26869201660156 L391.845947265625,108.50887298583984 L391.5956115722656,110.25743103027344 L391.24884033203125,112.47342681884766 L390.8153991699219,115.05441284179688 L390.3348083496094,117.87102508544922 L389.867431640625,120.77891540527344 L389.4319152832031,123.6190414428711 L389.03912353515625,126.18577575683594 L388.71337890625,128.2960205078125 L388.4571228027344,129.83596801757812 L388.2781677246094,130.7808074951172 L388.2103576660156,131.13621520996094 L388.2535095214844,130.89907836914062 L388.4372253417969,129.9998016357422 L388.83306884765625,128.41555786132812 L389.4830017089844,126.2724838256836 L390.3948059082031,123.83303833007812 L391.5440979003906,121.40999603271484 L392.8193664550781,119.27764129638672 L394.0921630859375,117.60103607177734 L395.256591796875,116.45032501220703 L396.2294006347656,115.85897827148438 L396.9756774902344,115.85108184814453 L397.485107421875,116.45278930664062 L397.73968505859375,117.67451477050781 L397.7267150878906,119.47268676757812 L397.47784423828125,121.70135498046875 L397.0699462890625,124.11420440673828 L396.63134765625,126.42431640625 L396.2682189941406,128.38539123535156 L396.0553894042969,129.8528289794922 L396.01593017578125,130.68603515625 L396.1336669921875,130.847900390625 L396.36029052734375,130.3706817626953 L396.5935974121094,129.64830017089844 L396.7576904296875,129.01856994628906 M402.62408447265625,116.96055603027344 L402.84674072265625,116.78618621826172 L403.087158203125,116.73804473876953 L403.2434387207031,117.07304382324219 L403.1880798339844,118.05548095703125 L402.9376525878906,119.7297592163086 L402.5468444824219,121.93331146240234 L402.12518310546875,124.38973999023438 L401.7230224609375,126.78827667236328 L401.42486572265625,128.85614013671875 L401.24945068359375,130.46714782714844 L401.20263671875,131.51116943359375 L401.2607727050781,131.93206787109375 L401.41387939453125,131.77027893066406 L401.5784606933594,131.32916259765625 L401.7089538574219,130.88392639160156 M405.0349426269531,111.5167236328125 L405.1131591796875,111.13309478759766 L405.21417236328125,110.63080596923828 L405.3006896972656,110.1392593383789 L405.33734130859375,109.8480453491211 L405.3446044921875,109.74894714355469 L405.33306884765625,109.81647491455078 L405.32330322265625,109.93517303466797 L405.3210754394531,110.0521240234375 M412.0732116699219,114.38855743408203 L411.75054931640625,114.44134521484375 L411.2009582519531,114.64923858642578 L410.4730224609375,115.10183715820312 L409.7117614746094,115.84453582763672 L409.0369873046875,116.85974884033203 L408.55615234375,118.09485626220703 L408.35235595703125,119.4615249633789 L408.5162658691406,120.87811279296875 L409.04705810546875,122.2646255493164 L409.8644104003906,123.56652069091797 L410.82440185546875,124.76920318603516 L411.7215881347656,125.88076782226562 L412.3636169433594,126.90721893310547 L412.6316833496094,127.86420440673828 L412.4651184082031,128.74838256835938 L411.8870544433594,129.5468292236328 L410.9750671386719,130.23629760742188 L409.8608093261719,130.77899169921875 L408.7187194824219,131.15628051757812 L407.7489013671875,131.35598754882812 L407.09521484375,131.38430786132812 L406.81585693359375,131.26512145996094 L406.79339599609375,131.097412109375 L406.8790283203125,130.9521484375 M428.4461364746094,115.5118408203125 L428.4463806152344,115.46129608154297 L428.4324951171875,115.47895050048828 L428.37591552734375,115.72757720947266 L428.25555419921875,116.4012451171875 L428.0532531738281,117.63288116455078 L427.78460693359375,119.39381408691406 L427.4867248535156,121.54391479492188 L427.21685791015625,123.88004302978516 L427.0205993652344,126.1978988647461 L426.9178466796875,128.3116912841797 L426.86175537109375,130.1004638671875 L426.83148193359375,131.4084930419922 L426.8236999511719,132.14755249023438 L426.86474609375,132.3192138671875 L426.9396057128906,132.16160583496094 L427.024658203125,131.9086151123047 M431.0383605957031,109.40576171875 L431.1356201171875,109.05477905273438 L431.2601013183594,108.613037109375 L431.3714599609375,108.21177673339844 L431.4383239746094,108.02326202392578 L431.4662780761719,108.01994323730469 L431.4886169433594,108.1714096069336 L431.5166015625,108.35201263427734 L431.54046630859375,108.50222778320312 M438.0026550292969,113.68780517578125 L437.8621826171875,113.47748565673828 L437.5525207519531,113.1858901977539 L437.04791259765625,112.92304229736328 L436.4007568359375,112.84823608398438 L435.7056884765625,113.04671478271484 L435.08148193359375,113.57196807861328 L434.6634521484375,114.42814636230469 L434.5391845703125,115.58705139160156 L434.74078369140625,116.99423217773438 L435.23919677734375,118.55716705322266 L435.9365539550781,120.19763946533203 L436.6957702636719,121.86363983154297 L437.37750244140625,123.51558685302734 L437.82904052734375,125.11333465576172 L437.93951416015625,126.62104034423828 L437.66064453125,127.97715759277344 L436.9993591308594,129.13760375976562 L436.039794921875,130.0779266357422 L434.89886474609375,130.7876434326172 L433.69854736328125,131.2371826171875 L432.580322265625,131.42347717285156 L431.6672668457031,131.36241149902344 L431.06182861328125,131.18482971191406 L430.7615051269531,131.00938415527344 M454.6816101074219,114.97356414794922 L454.57476806640625,114.50514221191406 L454.3086242675781,113.83281707763672 L453.86212158203125,113.15514373779297 L453.2535400390625,112.76750183105469 L452.54071044921875,112.79248809814453 L451.80364990234375,113.30429077148438 L451.1358642578125,114.28700256347656 L450.60906982421875,115.68523406982422 L450.3189697265625,117.40464782714844 L450.30389404296875,119.31082916259766 L450.56298828125,121.2820816040039 L451.0531311035156,123.22926330566406 L451.6835021972656,125.0780029296875 L452.3190002441406,126.76129150390625 L452.83831787109375,128.2149658203125 L453.15142822265625,129.38037109375 L453.19366455078125,130.23007202148438 L452.93310546875,130.76907348632812 L452.3662109375,131.04693603515625 L451.51019287109375,131.12657165527344 L450.43017578125,131.0506591796875 L449.26544189453125,130.841796875 L448.1514892578125,130.50555419921875 L447.2509460449219,129.9413299560547 L446.6929016113281,129.10586547851562 L446.5299987792969,128.0162353515625 L446.6162414550781,126.99553680419922 L446.7908020019531,126.27762603759766 M458.76123046875,114.74420928955078 L458.79644775390625,114.91442108154297 L458.81072998046875,115.41178894042969 L458.7610168457031,116.38896942138672 L458.60784912109375,117.88529205322266 L458.3635559082031,119.82130432128906 L458.0535888671875,122.04998016357422 L457.7165832519531,124.39079284667969 L457.4013671875,126.65019989013672 L457.152099609375,128.63453674316406 L456.9932861328125,130.17431640625 L456.9217529296875,131.14356994628906 L456.908203125,131.6011199951172 M459.41815185546875,109.90728759765625 L459.4125671386719,109.52071380615234 L459.42913818359375,108.95930480957031 L459.4593811035156,108.41712188720703 L459.49493408203125,108.08821868896484 M462.802734375,112.75013732910156 L462.8421630859375,113.06996154785156 L462.8768310546875,113.79765319824219 L462.8619384765625,115.02277374267578 L462.72943115234375,116.69583129882812 L462.4381103515625,118.7114028930664 L462.00823974609375,120.91970825195312 L461.5106201171875,123.1410140991211 L461.0367126464844,125.1817855834961 L460.674072265625,126.87496948242188 L460.43914794921875,128.10589599609375 L460.32403564453125,128.813232421875 L460.32281494140625,128.96334838867188 L460.4568176269531,128.5065460205078 L460.782958984375,127.36703491210938 L461.36114501953125,125.58120727539062 L462.2099914550781,123.33573150634766 L463.3302917480469,120.92314910888672 L464.6697692871094,118.66545867919922 L466.14306640625,116.8085708618164 L467.6405944824219,115.46543884277344 L469.01983642578125,114.6842269897461 L470.15478515625,114.50120544433594 L470.96728515625,114.951904296875 L471.4140930175781,116.07302856445312 L471.510986328125,117.82291412353516 L471.315185546875,120.04316711425781 L470.92083740234375,122.4775161743164 L470.44940185546875,124.82074737548828 L470.02398681640625,126.80504608154297 L469.70892333984375,128.2987060546875 L469.526123046875,129.24314880371094 L469.46295166015625,129.58697509765625 L469.5353088378906,129.24688720703125 L469.80853271484375,128.1037139892578 L470.3643798828125,126.1398696899414 L471.2626953125,123.58684539794922 L472.4878234863281,120.8487548828125 L473.92626953125,118.35479736328125 L475.3965759277344,116.39947509765625 L476.7413024902344,115.08543395996094 L477.818603515625,114.41255187988281 L478.5693359375,114.38494873046875 L478.9815673828125,115.0220947265625 L479.08880615234375,116.31904602050781 L478.9342956542969,118.173583984375 L478.62548828125,120.39955139160156 L478.26348876953125,122.77588653564453 L477.9614562988281,125.08287048339844 L477.7916259765625,127.11185455322266 L477.77886962890625,128.7196502685547 L477.86846923828125,129.81993103027344 L478.01593017578125,130.2926483154297 L478.16558837890625,130.12319946289062 L478.321533203125,129.387939453125 L478.45343017578125,128.49864196777344 L478.5505676269531,127.79330444335938 M482.90966796875,113.70506286621094 L482.900146484375,113.82424926757812 L482.855712890625,114.27261352539062 L482.7501220703125,115.23969268798828 L482.56341552734375,116.80537414550781 L482.296630859375,118.89691925048828 L481.97674560546875,121.39109802246094 L481.6092529296875,124.12057495117188 L481.2283935546875,126.93592071533203 L480.8502197265625,129.7119903564453 L480.4927673339844,132.2847442626953 L480.1895751953125,134.48121643066406 L479.97149658203125,136.18942260742188 L479.8316650390625,137.31863403320312 L479.7628479003906,137.82968139648438 L479.72998046875,137.723876953125 L479.71826171875,136.96522521972656 L479.7547912597656,135.5301971435547 L479.8804931640625,133.50485229492188 L480.13519287109375,131.04429626464844 L480.553955078125,128.34693908691406 L481.13690185546875,125.60513305664062 L481.88092041015625,122.94351959228516 L482.77203369140625,120.45336151123047 L483.80413818359375,118.25361633300781 L484.96405029296875,116.46961212158203 L486.22198486328125,115.20479583740234 L487.50140380859375,114.53531646728516 L488.70477294921875,114.49112701416016 L489.71368408203125,115.0579833984375 L490.44525146484375,116.17758178710938 L490.8455505371094,117.74356842041016 L490.8973083496094,119.61031341552734 L490.5908203125,121.61863708496094 L489.93988037109375,123.60787963867188 L488.9822998046875,125.4411392211914 L487.798095703125,126.99397277832031 L486.4984436035156,128.18357849121094 L485.20196533203125,128.96910095214844 L484.0079345703125,129.3699951171875 L483.02581787109375,129.3532257080078 L482.33642578125,128.939208984375 L481.9897766113281,128.1741180419922 L481.9053955078125,127.37702178955078 L481.95635986328125,126.77931213378906 M496.88079833984375,105.85340881347656 L496.8539123535156,106.07002258300781 L496.8154296875,106.63386535644531 L496.77667236328125,107.66565704345703 L496.7459716796875,109.18489074707031 L496.6965026855469,111.14996337890625 L496.5906982421875,113.50418853759766 L496.39984130859375,116.16395568847656 L496.12286376953125,119.0364990234375 L495.8028564453125,121.97537994384766 L495.4981689453125,124.79075622558594 L495.24920654296875,127.29560089111328 L495.076904296875,129.2996826171875 L494.982421875,130.66094970703125 L494.94757080078125,131.35577392578125 L494.9483337402344,131.5595245361328 L494.9615478515625,131.50973510742188 M498.23919677734375,122.80451965332031 L498.58587646484375,122.64643859863281 L499.2455749511719,122.2658920288086 L500.20196533203125,121.60494232177734 L501.32806396484375,120.66920471191406 L502.5037841796875,119.51750183105469 L503.6000061035156,118.22246551513672 L504.51849365234375,116.8865966796875 L505.182861328125,115.60836791992188 L505.5472412109375,114.4998550415039 L505.5798645019531,113.65352630615234 L505.25567626953125,113.16757202148438 L504.56353759765625,113.12250518798828 L503.5301513671875,113.61394500732422 L502.26910400390625,114.69744873046875 L500.94586181640625,116.35179901123047 L499.7326354980469,118.43221282958984 L498.7985534667969,120.71405792236328 L498.2579345703125,122.94183349609375 L498.1752624511719,124.9063720703125 L498.5777587890625,126.46992492675781 L499.42108154296875,127.54344177246094 L500.6170654296875,128.0873565673828 L502.0454406738281,128.1149444580078 L503.61865234375,127.6038589477539 L505.226806640625,126.61886596679688 L506.7591552734375,125.29623413085938 L507.933349609375,124.07257080078125 L508.6384582519531,123.2332534790039 M520.0218505859375,108.66572570800781 L520.050048828125,108.63214874267578 L520.0499877929688,108.76358795166016 L519.9842529296875,109.26190185546875 L519.80517578125,110.31340789794922 L519.4845581054688,111.95401763916016 L519.0250854492188,114.11724090576172 L518.4410400390625,116.65419006347656 L517.7664184570312,119.38111877441406 L517.0868530273438,122.1208267211914 L516.4754638671875,124.65370178222656 L515.9877319335938,126.76200103759766 L515.6600341796875,128.31591796875 L515.4824829101562,129.27101135253906 L515.4354858398438,129.63088989257812 L515.5150146484375,129.40907287597656 L515.7203369140625,128.5277099609375 L516.095458984375,126.96115112304688 L516.7013549804688,124.84526824951172 L517.58203125,122.4423828125 L518.7653198242188,120.05745697021484 L520.1820068359375,117.94752502441406 L521.689208984375,116.22480773925781 L523.1294555664062,114.9595718383789 L524.3504638671875,114.23182678222656 L525.24560546875,114.12329864501953 L525.7919921875,114.69152069091797 L525.98681640625,115.93589782714844 L525.8684692382812,117.74104309082031 L525.5211181640625,119.92208099365234 L525.0460815429688,122.26368713378906 L524.5475463867188,124.53775787353516 L524.1331176757812,126.5296630859375 L523.8645629882812,128.0835723876953 L523.7562255859375,129.11863708496094 L523.7569580078125,129.66354370117188 L523.8005981445312,129.8652801513672 M533.5082397460938,114.8217544555664 L533.5884399414062,114.62183380126953 L533.65087890625,114.3587875366211 L533.6035766601562,114.12554931640625 L533.3414306640625,114.07254028320312 L532.8261108398438,114.29586791992188 L532.0438232421875,114.86991882324219 L531.036865234375,115.84278869628906 L529.8935546875,117.25428771972656 L528.7117919921875,119.07061767578125 L527.6249389648438,121.19928741455078 L526.75927734375,123.47208404541016 L526.20703125,125.63978576660156 L526.0186767578125,127.45922088623047 L526.18408203125,128.77471923828125 L526.6270141601562,129.5224151611328 L527.2778930664062,129.70199584960938 L528.0730590820312,129.31134033203125 L528.9866943359375,128.31443786621094 L530.0086059570312,126.71099853515625 L531.1221313476562,124.6129379272461 L532.2813720703125,122.25938415527344 L533.4181518554688,119.95634460449219 L534.4385375976562,117.99419403076172 L535.25,116.52021026611328 L535.7918701171875,115.56912994384766 L536.039794921875,115.1340103149414 L535.9968872070312,115.23228454589844 L535.7027587890625,115.93115997314453 L535.2073974609375,117.28077697753906 L534.586669921875,119.1964340209961 L533.9448852539062,121.48839569091797 L533.3805541992188,123.91036224365234 L532.9635620117188,126.20487976074219 L532.7430419921875,128.1785430908203 L532.7180786132812,129.67279052734375 L532.8786010742188,130.55615234375 L533.2141723632812,130.7296600341797 L533.7239990234375,130.13807678222656 L534.4000854492188,128.79348754882812 L535.2479248046875,126.83378601074219 L536.2345581054688,124.48474884033203 L537.3081665039062,122.03050231933594 L538.4053955078125,119.749267578125 L539.4425048828125,117.83153533935547 L540.3360595703125,116.40315246582031 L541.032958984375,115.5679702758789 L541.4722900390625,115.40673828125 L541.6160278320312,115.97407531738281 L541.4761962890625,117.2880859375 L541.0778198242188,119.22588348388672 L540.512451171875,121.53594207763672 L539.9078369140625,123.88107299804688 L539.379150390625,125.94316864013672 L539.0005493164062,127.47733306884766 L538.8267211914062,128.3619842529297 L538.8575439453125,128.55531311035156 L539.0995483398438,128.0391845703125 L539.56689453125,126.8037338256836 L540.271728515625,124.94792175292969 L541.2161254882812,122.68252563476562 L542.3931274414062,120.29801940917969 L543.7463989257812,118.1147232055664 L545.1773071289062,116.37049102783203 L546.5682373046875,115.17929077148438 L547.7941284179688,114.60147857666016 L548.7562866210938,114.66459655761719 L549.39453125,115.34569549560547 L549.693115234375,116.5923843383789 L549.6650390625,118.28418731689453 L549.379638671875,120.2501449584961 L548.9363403320312,122.30501556396484 L548.450927734375,124.27130889892578 L548.0341796875,125.97089385986328 L547.7644653320312,127.28865051269531 L547.6365966796875,128.1240234375 L547.6087646484375,128.52804565429688 M557.7139892578125,117.63275146484375 L557.8090209960938,117.29045867919922 L557.9107055664062,116.73751831054688 L557.957275390625,116.04757690429688 L557.8626708984375,115.37006378173828 L557.5899047851562,114.76302337646484 L557.12451171875,114.29837036132812 L556.457763671875,114.04674530029297 L555.5816650390625,114.13265991210938 L554.5220336914062,114.68310546875 L553.326416015625,115.79002380371094 L552.0830078125,117.4581069946289 L550.9064331054688,119.58910369873047 L549.9354858398438,121.95011901855469 L549.2822265625,124.24344635009766 L549.025146484375,126.17548370361328 L549.1792602539062,127.51921081542969 L549.7178344726562,128.13571166992188 L550.5833129882812,127.98086547851562 L551.7264404296875,127.05110168457031 L553.0736694335938,125.39665985107422 L554.5455932617188,123.14547729492188 L556.0542602539062,120.49421691894531 L557.5189208984375,117.66912841796875 L558.8587646484375,114.89098358154297 L559.9994506835938,112.35266876220703 L560.8889770507812,110.20043182373047 L561.4925537109375,108.53587341308594 L561.8072509765625,107.4291763305664 L561.855224609375,106.93667602539062 L561.65673828125,107.12076568603516 L561.213134765625,108.06690979003906 L560.555908203125,109.82650756835938 L559.7341918945312,112.33319854736328 L558.828369140625,115.38166046142578 L557.9412841796875,118.6788558959961 L557.1799926757812,121.90642547607422 L556.6406860351562,124.75627136230469 L556.4020385742188,127.01881408691406 L556.4954223632812,128.56507873535156 L556.9163818359375,129.32351684570312 L557.61376953125,129.2821502685547 L558.525390625,128.47804260253906 L559.6024169921875,126.9561767578125 L560.7786254882812,124.87879180908203 L561.9778442382812,122.48584747314453 L563.1405639648438,120.06026458740234 L564.1937255859375,117.87568664550781 L565.0833129882812,116.11447143554688 L565.7779541015625,114.8653564453125 L566.2368774414062,114.19712829589844 L566.4401245117188,114.1656494140625 L566.3851318359375,114.83926391601562 L566.0728149414062,116.26146697998047 L565.5557861328125,118.32827758789062 L564.9227294921875,120.81942749023438 L564.2942504882812,123.41874694824219 L563.8011474609375,125.79063415527344 L563.5123291015625,127.68226623535156 L563.4435424804688,128.9716339111328 L563.591064453125,129.60476684570312 L563.923828125,129.5777130126953 L564.433837890625,128.86912536621094 L565.119384765625,127.49583435058594 L565.9374389648438,125.58402252197266 L566.83251953125,123.38337707519531 L567.7421875,121.21009826660156 L568.5797729492188,119.342529296875 L569.2698364257812,117.90913391113281 L569.770751953125,116.94296264648438 L570.0594482421875,116.45773315429688 L570.1514892578125,116.48175048828125 L570.0914306640625,117.07524871826172 L569.9268188476562,118.26441192626953 L569.7071533203125,119.95621490478516 L569.4979248046875,121.95841979980469 L569.3555908203125,124.02789306640625 L569.3248291015625,125.90980529785156 L569.4075317382812,127.41981506347656 L569.5780029296875,128.46823120117188 L569.797607421875,129.02572631835938 L570.0435791015625,129.0924530029297 L570.319091796875,128.65036010742188 L570.6707153320312,127.66680908203125 L571.1287841796875,126.16162872314453 L571.7062377929688,124.26309967041016 L572.3651733398438,122.16778564453125 L573.0379638671875,120.09842681884766 L573.662841796875,118.21910095214844 L574.208740234375,116.61753845214844 L574.6527099609375,115.34005737304688 L574.9920043945312,114.41297912597656 L575.2166748046875,113.84050750732422 L575.3419799804688,113.60527038574219 L575.412353515625,113.63697052001953 L575.453369140625,113.78224182128906 L575.4802856445312,113.92488098144531 M579.2337646484375,114.74038696289062 L579.3699340820312,114.76976776123047 L579.5013427734375,114.94194793701172 L579.5464477539062,115.38823699951172 L579.3985595703125,116.22486877441406 L579.064453125,117.50701904296875 L578.5685424804688,119.20856475830078 L577.9824829101562,121.21409606933594 L577.38232421875,123.35169982910156 L576.87060546875,125.38520050048828 L576.5111694335938,127.08976745605469 L576.3199462890625,128.32916259765625 L576.2583618164062,129.0592041015625 L576.2719116210938,129.28851318359375 L576.3258056640625,129.05447387695312 L576.4375,128.33935546875 L576.666259765625,127.14376831054688 L577.071533203125,125.55718231201172 L577.700439453125,123.73543548583984 L578.5623168945312,121.84507751464844 L579.6279296875,120.0415267944336 L580.8350219726562,118.42808532714844 L582.0802612304688,117.07574462890625 L583.2581787109375,116.05831909179688 L584.2645263671875,115.41831970214844 L585.0249633789062,115.15498352050781 L585.5106201171875,115.25115203857422 L585.71826171875,115.69041442871094 L585.6544799804688,116.47132110595703 L585.3629760742188,117.59326171875 L584.9017333984375,119.0224838256836 L584.3557739257812,120.6795425415039 L583.8325805664062,122.45535278320312 L583.40673828125,124.2201156616211 L583.1197509765625,125.84708404541016 L582.9566650390625,127.23882293701172 L582.9052734375,128.24180603027344 L582.9468383789062,128.74563598632812 L583.084716796875,128.7244415283203 L583.2478637695312,128.41981506347656 L583.386474609375,128.07296752929688 M587.1566772460938,108.55902099609375 L587.1696166992188,108.47109985351562 L587.18798828125,108.37323760986328 L587.205810546875,108.29605102539062 M594.1905517578125,105.0 L594.1900024414062,105.27325439453125 L594.1284790039062,105.90467071533203 L593.949462890625,106.99422454833984 L593.60888671875,108.5277328491211 L593.0960693359375,110.45962524414062 L592.427001953125,112.72844696044922 L591.6499633789062,115.24578094482422 L590.8370361328125,117.91434478759766 L590.070068359375,120.61369323730469 L589.427978515625,123.18478393554688 L588.9490966796875,125.47323608398438 L588.6436157226562,127.27973937988281 L588.4890747070312,128.44317626953125 L588.4395141601562,128.91619873046875 L588.4421997070312,128.92135620117188 L588.460205078125,128.7327423095703 M588.9459838867188,118.5411148071289 L589.1022338867188,118.49851989746094 L589.518798828125,118.40101623535156 L590.2886962890625,118.2183837890625 L591.4141845703125,117.91846466064453 L592.8206176757812,117.46766662597656 L594.3667602539062,116.87374877929688 L595.91259765625,116.18087005615234 L597.3367919921875,115.48041534423828 L598.5358276367188,114.8668212890625 L599.432373046875,114.40383911132812 L599.9781494140625,114.15379333496094 L600.1473999023438,114.20367431640625 L599.9711303710938,114.67298889160156 L599.4946899414062,115.6930160522461 L598.788330078125,117.29743194580078 L597.9502563476562,119.37028503417969 L597.0865478515625,121.702880859375 L596.3031616210938,124.0449447631836 L595.691162109375,126.18504333496094 L595.31884765625,127.90081787109375 L595.205810546875,129.02394104003906 L595.3316040039062,129.47422790527344 L595.5515747070312,129.462890625 L595.74853515625,129.2568359375 M600.6842041015625,108.3852767944336 L600.724853515625,108.3125 L600.8067016601562,108.2578353881836 L600.911865234375,108.25416564941406 L601.018798828125,108.31731414794922 L601.102783203125,108.38726043701172 L601.16455078125,108.43224334716797 L601.2042236328125,108.44200134277344 L601.2301025390625,108.4365005493164 M604.220458984375,113.1283187866211 L604.2411499023438,113.31023406982422 L604.2116088867188,113.71762084960938 L604.0738525390625,114.44247436523438 L603.7747192382812,115.52450561523438 L603.3275146484375,116.99309539794922 L602.7595825195312,118.80301666259766 L602.1296997070312,120.8564224243164 L601.5093994140625,122.96732330322266 L600.9677124023438,124.92280578613281 L600.5475463867188,126.53348541259766 L600.2885131835938,127.66958618164062 L600.1888427734375,128.25038146972656 L600.2506103515625,128.24563598632812 L600.507080078125,127.59957122802734 L601.0018920898438,126.2900161743164 L601.7687377929688,124.4052505493164 L602.8409423828125,122.13462829589844 L604.1889038085938,119.72785949707031 L605.7486572265625,117.45527648925781 L607.4061279296875,115.52181243896484 L608.9898681640625,114.06444549560547 L610.3065185546875,113.19087219238281 L611.2113647460938,112.97916412353516 L611.6096801757812,113.45677185058594 L611.5241088867188,114.6293716430664 L611.0504760742188,116.42430877685547 L610.3221435546875,118.66185760498047 L609.5115966796875,121.10839080810547 L608.7945556640625,123.5041275024414 L608.267333984375,125.58235168457031 L607.9786376953125,127.17550659179688 L607.9683837890625,128.11216735839844 L608.2081909179688,128.32623291015625 L608.6834716796875,127.89038848876953 L609.1978149414062,127.21470642089844 L609.5882568359375,126.62866973876953 M618.8675537109375,116.77137756347656 L619.0240478515625,116.33971405029297 L619.182861328125,115.7043685913086 L619.223876953125,114.99080657958984 L619.0220336914062,114.39424133300781 L618.5629272460938,113.96886444091797 L617.8670654296875,113.77310180664062 L616.98779296875,113.8788833618164 L616.0007934570312,114.38678741455078 L614.9649658203125,115.33799743652344 L613.9678344726562,116.68917083740234 L613.0921630859375,118.31610870361328 L612.4205322265625,120.01683044433594 L612.0349731445312,121.59088897705078 L612.0155639648438,122.84783172607422 L612.3710327148438,123.63976287841797 L613.0965576171875,123.89642333984375 L614.1286010742188,123.60377502441406 L615.3726196289062,122.7850341796875 L616.7266845703125,121.5379638671875 L618.0689086914062,120.00502014160156 L619.278564453125,118.36461639404297 L620.2671508789062,116.83357238769531 L620.9718017578125,115.57316589355469 L621.3927001953125,114.6566390991211 L621.5806884765625,114.11019134521484 L621.5936279296875,113.93517303466797 L621.5076904296875,114.15080261230469 L621.339111328125,114.82653045654297 L621.078857421875,115.98367309570312 L620.7178344726562,117.57464599609375 L620.2381591796875,119.50846099853516 L619.652587890625,121.67955780029297 L618.9998168945312,123.99977111816406 L618.2947387695312,126.41429138183594 L617.554443359375,128.8596649169922 L616.7703857421875,131.2676544189453 L615.8997192382812,133.54736328125 L614.9271850585938,135.61614990234375 L613.86572265625,137.39263916015625 L612.7586059570312,138.80946350097656 L611.684326171875,139.81509399414062 L610.703857421875,140.38372802734375 L609.8485717773438,140.4740447998047 L609.14208984375,140.0715789794922 L608.6265258789062,139.1813201904297 L608.3642578125,137.86412048339844 L608.4356689453125,136.22264099121094 L608.8807983398438,134.39967346191406 L609.7057495117188,132.52261352539062 L610.8729248046875,130.6961669921875 L612.3390502929688,128.9912567138672 L614.0512084960938,127.47161102294922 L615.9417724609375,126.17730712890625 L617.8927612304688,125.14334106445312 L619.7667846679688,124.38935089111328 L621.3917846679688,123.89410400390625 L622.639892578125,123.60958099365234 L623.4200439453125,123.47918701171875 L623.7896728515625,123.43580627441406 M627.5758056640625,122.05538940429688 L627.5721435546875,122.05230712890625 L627.5711059570312,122.04954528808594 L627.5662841796875,122.04854583740234 L627.5567016601562,122.04811096191406 L627.5369262695312,122.05204772949219 L627.51953125,122.05174255371094 L627.5068359375,122.03895568847656 L627.4994506835938,122.00442504882812 L627.4852905273438,121.94706726074219 L627.4603271484375,121.87173461914062 L627.431884765625,121.8077392578125 L627.4112548828125,121.7662582397461 M631.2177734375,121.5299072265625 L631.2298583984375,121.546142578125 L631.254638671875,121.56512451171875 L631.284912109375,121.56825256347656 L631.3153076171875,121.53587341308594 L631.3399047851562,121.46923828125 L631.3670654296875,121.3813705444336 L631.3955688476562,121.29843139648438 L631.419189453125,121.23200988769531 L631.4305419921875,121.18376922607422 L631.4354248046875,121.15038299560547 L631.43359375,121.12776947021484 L631.441650390625,121.11349487304688 L631.4517822265625,121.09754180908203 L631.452392578125,121.0641098022461 L631.4451904296875,121.0243911743164 L631.4368896484375,120.99055480957031 " fill="none" stroke="black" stroke-linecap="round" stroke-width="2" /></svg>